<?xml version="1.0" encoding="UTF-8" standalone="no"?>
<!-- Created with Inkscape (http://www.inkscape.org/) -->

<svg xmlns:dc="http://purl.org/dc/elements/1.1/" xmlns:cc="http://creativecommons.org/ns#" xmlns:rdf="http://www.w3.org/1999/02/22-rdf-syntax-ns#" xmlns:svg="http://www.w3.org/2000/svg" xmlns="http://www.w3.org/2000/svg" xmlns:sodipodi="http://sodipodi.sourceforge.net/DTD/sodipodi-0.dtd" xmlns:inkscape="http://www.inkscape.org/namespaces/inkscape" width="600" height="450" id="svg3337" sodipodi:version="0.32" inkscape:version="0.48.0 r9654" version="1.0" sodipodi:docname="Alsace Lorraine departments evolution map (en).svg" inkscape:output_extension="org.inkscape.output.svg.inkscape" inkscape:export-filename="D:\Wikipédia\Atelier graphique\Cartes\France Lambert-93\Vector pour topo map.png" inkscape:export-xdpi="90" inkscape:export-ydpi="90" style="display:inline">
  <sodipodi:namedview id="base" pagecolor="#ffffff" bordercolor="#666666" borderopacity="1.0" gridtolerance="10000" guidetolerance="10" objecttolerance="10" inkscape:pageopacity="0.0" inkscape:pageshadow="2" inkscape:zoom="0.9995" inkscape:cx="292.03534" inkscape:cy="215.6078" inkscape:document-units="px" inkscape:current-layer="layer6" showgrid="false" inkscape:window-width="834" inkscape:window-height="690" inkscape:window-x="0" inkscape:window-y="0" inkscape:window-maximized="0" fit-margin-top="0" fit-margin-left="0" fit-margin-right="0" fit-margin-bottom="0" borderlayer="true" inkscape:showpageshadow="false" showguides="true" inkscape:guide-bbox="true" />
  <defs id="defs3339" />
  <metadata id="metadata3342">
    <rdf:RDF>
      <cc:Work rdf:about="">
        <dc:format>image/svg+xml</dc:format>
        <dc:type rdf:resource="http://purl.org/dc/dcmitype/StillImage" />
        <cc:license rdf:resource="http://creativecommons.org/licenses/by-sa/3.0/" />
        <dc:title>Blank map of France, with regions and departments as independent polygons</dc:title>
        <dc:date>02-2009</dc:date>
        <dc:creator>
          <cc:Agent>
            <dc:title>Eric Gaba (user Sting) for Wikipedia</dc:title>
          </cc:Agent>
        </dc:creator>
        <dc:source>NGDC World Data Base II data</dc:source>
        <dc:description>Lambert-93 projection ; RGF-93 datum
Scale: 1:2,000,000</dc:description>
      </cc:Work>
      <cc:License rdf:about="http://creativecommons.org/licenses/by-sa/3.0/">
        <cc:permits rdf:resource="http://creativecommons.org/ns#Reproduction" />
        <cc:permits rdf:resource="http://creativecommons.org/ns#Distribution" />
        <cc:requires rdf:resource="http://creativecommons.org/ns#Notice" />
        <cc:requires rdf:resource="http://creativecommons.org/ns#Attribution" />
        <cc:permits rdf:resource="http://creativecommons.org/ns#DerivativeWorks" />
        <cc:requires rdf:resource="http://creativecommons.org/ns#ShareAlike" />
      </cc:License>
    </rdf:RDF>
  </metadata>
  <g inkscape:groupmode="layer" id="layer4" inkscape:label="autres pays" style="display:inline" transform="translate(-1234,-361.10001)">
    <rect y="361.10001" x="1234" height="450" width="600" id="rect4911" style="fill:#e0e0e0;stroke:none;display:inline" />
  </g>
  <g inkscape:groupmode="layer" id="layer3" inkscape:label="anciens departements" style="display:inline" transform="translate(-1234,-361.10001)">
    <path style="fill:#c3a76b;stroke:none" d="m 1524,568.3 c -2,-2.7 -5,1.4 -7,-0.9 0,0.5 -1,0.9 -1,1.4 0,4 5,0.8 7,2.5 -4,-0.1 -7,2.8 -11,4.1 -3,2.2 -7,2.1 -9,5.3 -3,3 -5,6.7 -9,8.5 -2,0.5 -2,-5.2 -4,-1.4 -2,1.6 -2,3.4 -4,5 -5,1.8 -9,-4.6 -14,-2.6 -1,0.4 -3,-2.4 -6,-1.8 -2,-2.4 1,-10 -5,-7.1 -3,1.3 -5,5.2 -3,8.2 1,3.4 -5,-3.1 -7,-0.5 -2,4.6 -9,0.3 -12,4.5 -1,2.5 -5,2.6 -4,-0.6 -3,-0.8 -7,2.4 -9,-1.4 0,-5 -6,-1.5 -6,1.5 -2,2 -7,2.1 -9,1.7 1,-2.9 -7,-1.3 -4,1.8 1,3.6 -2,4.2 -4,6.3 -3,1.1 -1,-7.1 -5,-3.5 2,3 -1,3.1 -3,2.2 -3,1.1 -6,1 -9,2.7 -3,-1.3 -2,-5 -3,-8.1 -2,0.4 -7,-2.2 -3,-4.9 3,-2.8 -5,-3.4 -2,0.6 0,5 -9,2.4 -4,-1 3,-2 2,-4.7 2,-7.3 3,-3.2 2,-6 -2,-6.1 -4,-3.1 -9,5.6 -12,1.7 l 0,-0.5 c -1,-2.9 -1,-6.2 0,-8 -2,-2.1 -8,-2.3 -7,-7.6 1,-2 4,-3.4 7,-4.4 3,2.4 5,-5.8 1,-2.8 -4,1.7 -4,-4.3 -4,-6.6 -1,-3.8 3,-8.2 -2,-10.6 -2,-1.8 -3,-5.1 0,-6.3 -1,-3.3 3,-4.9 4,-7.3 -4,0 3,-4 1,-6.9 0,-3.1 -3,-6.9 1,-8.2 0,-2.5 -7,-5.8 -3,-7.5 3,-0.3 3,-5.6 7,-3.8 4,-0.4 3,-4.7 0,-6.3 0,0 0,-1 1,-3 l 0,0 c 0,-2.1 0,-1.5 2,-1.2 2,0.2 0,-0.9 1,-2.1 0,-1.1 0,-0.9 2,0.2 1,1.2 1,0.9 3,1.3 1,0.5 1,2.4 2,4.5 1,2 2,0.7 3,-0.9 2,-1.6 1,-2 3,-1.7 3,0.4 1,-2.4 1,-4.7 -1,-2.2 -1,-2.4 0,-3.6 1,0.3 2,0.4 3,0.3 1,3.3 6,4.6 4,8.6 -1,4 5,-0.6 5,3.9 1,1 4,-2.1 5,1.6 0,2.8 2,5.5 4,2.7 3,1.6 7,-1.2 9,2.4 3,0 6,-2.7 7,1.2 2,-0.5 3,0.5 4,1.8 0,0 1,-2.2 2,-3.5 1,-1.3 0,-1.8 1,-2.8 0,-1 2,-0.7 3,0.8 1,1.5 1,1.2 2,0.4 1,-0.8 1,-1.6 1,-3.1 0,-1.4 2,-2 2,-2.6 1,-0.6 1,-2.3 1,-3.6 0,-1.3 2,0.4 2,1.6 0,1.1 1,1 2,1.4 1,0.4 2,0.8 3,0 1,-0.8 2,-0.3 4,0.4 2,0.5 1,0.5 1,2.4 0,2 1,1.4 2,0.6 0,-0.8 1,-0.7 2,0.6 1,1.1 1,1.5 2,1.5 2,0 1,0.3 2,1.8 1,1.5 2,1.6 4,2.4 2,0.8 1,0.7 2,1.3 1,0.6 1,-1 2,-1.1 1,-0.1 2,-0.6 3,-1 2,-0.4 1,-2.6 0,-3.6 0,-1.1 1,-1.7 3,-1.6 1,0 2,-0.6 2,-1.4 0,-0.7 3,-1.4 4,-2 1,-0.6 1,-0.2 1,-1.1 0,-0.9 1,-0.7 2,-0.8 1,-0.1 0,-2.8 0,-3.6 0,-0.9 2,0.1 2,1.7 0,1.6 0,0.9 2,1.9 2,1 1,0.9 1,2.6 0,1.8 1,-0.1 2,-1.1 1,-0.9 2,-0.1 3,-1.1 1,-0.9 1,-0.5 2,0.9 2,1.5 2,0.9 3,0.2 2,-0.7 2,0 3,1.2 0,1.1 1,1 4,1.5 0,1.6 0,3.3 -2,3.5 -2,-1.1 -3,-1.5 -2,0.6 3,1.3 1,4.9 3,5.7 3,-0.5 6,1.4 9,3.2 1,3.5 4,0.3 6,1.5 2,3.2 -3,2.2 -5,2.9 0,1.8 -1,6.7 3,5.7 4,0.1 -2,2.8 0,4.4 2,-0.5 4,-1.6 6,-2.2 -1,-3 3,-2.7 2,-5.7 -1,-2.6 1,-1.7 3,-2.1 1,-2 3,-0.4 3,1.6 1,2.6 3,0.9 5,1.4 0,2.2 3,-0.4 2,1.3 -2,2.9 3,2.4 5,4.2 0,2.5 3,4.4 0,6.3 -2,2.3 -1,5.8 -3,8.1 0,2.5 -3,2.6 -2,4.9 1,3.1 4,4.5 6,4.5 -1,2.7 -3,4.4 -3,7.5 -1,2.8 -1,5.8 -3,8 -1,2.9 -4,3.6 -6,5 0,1 0,1.7 -1,2.3 -1,1.1 -3,1.3 -5,0.9 z" id="path4083" inkscape:connector-curvature="0" sodipodi:nodetypes="ccscccccccccccccccccccccccccccccccccccccccccccccccccccccccccccccscssscsscscsccsssscccssssssssssccccccccccccccccccccccccccccc" transform="matrix(0.9993,0.0348,-0.0348,0.9993,33.73,-34.32)" />
    <path style="fill:#f1c872;stroke:none;display:inline" d="m 1577,469.5 c -2,-0.6 -3,-2.2 -4,-1.2 -3,1.3 -6,-0.9 -6,-3.6 -1,-1.3 -1,-3.3 -3,-3.5 -1,-1.1 -1,-2.7 -3,-2.5 0,-1.3 3,-1.6 2,-3 -2,-0.2 -1,-2.7 -3,-2.2 -1,0 -2,1.3 -4,0.4 -2,0.5 0,-1.3 -1,-2.1 -3,-0.6 -5,0.6 -7,0.9 -1,0.6 0,2.4 -1,3.3 0,1.4 0,2.8 -2,2.3 -3,-0.2 -5,1.8 -6,4.3 0,2.2 -1,0.5 -2,0.1 -2,1 -3,-2.4 -5,-1 -1,0.8 -3,0.7 -4,1.4 -1,2.1 -1,-1 -2,-1.4 -2,-0.8 -3,0.7 -4,1 -1,-0.5 -2,-3.3 -4,-2.6 -2,0.8 0,-2.6 -2,-2.3 -1,0.1 -2,0.9 -1,2.2 0,1.2 0,2.7 -2,2.6 0,1.3 0,2.5 -2,2.1 -2,0.8 -2,-1.6 -2,-2.7 -1,-1.6 -1,-3.2 -1,-4.6 -2,-1.9 -1,-4.2 -1,-6.2 -1,0.5 -2,0.3 -3,-0.4 -1,-0.6 -2,-2.2 -4,-1.8 -2,0.7 -3,-2.8 -5,-3.1 -2,-0.3 -3,2.7 -5,2.1 -1,-0.7 -3,-2.4 -4,-0.9 -1,1 -1,2.5 0,3 0,1.4 1,2.5 2,3.5 0,1.5 -2,1.6 -2,3.2 0,2 -3,1.5 -4,0.8 -2,-0.2 -3,-0.7 -4,-1.5 -1,0.3 -2,0.9 -3,0.2 -1,0.2 -3,0.4 -3,-1.1 -1,-1.3 -2,-2.7 -1,-3.9 2,-0.8 2,-4.1 0,-4.8 -1,0.3 -2,1.8 -3,1 -1,-1.1 0,-2.4 -1,-3.4 0,-1.7 -1,-3.6 -3,-3.3 -1,-0.4 -1,-2.4 -1,-3.5 0,-1.2 -2,-1.5 -2,-2.9 -2,-1.9 -5,-2.8 -6,-5.1 0,-1.6 0,-2.3 -2,-2.4 -1,-1 -2,-3.1 0,-4.2 1,1.1 3,0.6 2,-1 -1,-0.6 -1,-1.6 -1,-3 -1,-1.5 -3,-0.8 -4,-1.9 -1,-0.9 -3,-2 -2,-3.7 2,-0.7 0,-3 -1,-3.5 -2,-0.1 -1,-1.5 -2,-2.3 -1,-0.4 -2,-0.5 -3,-1.6 -1,-1.2 -2,-1.6 -3,-1 -2,-0.7 -3,-2.6 -5,-2.6 -1,0.9 -1,2.6 -3,2.2 -1,-0.3 -2,1.1 -3,0.6 -2,-0.7 -3,-0.7 -4,-2 -2,-0.4 -3,-0.2 -3,-1.9 -2,0.1 -1,-2 -3,-1.7 -2,-1.1 -4,-3.3 -6,-2.2 -3,0.4 -5,0.8 -7,0.6 -2,0 0,1.4 -1,2.1 -1,-0.2 -2,0.8 -3,0.5 -1,0.5 0,2.2 -1,3.2 0,1.4 -3,-0.2 -2,1.9 0,1.3 -2,2.3 -3,1 0,-1.6 -2,-1.4 -3,-0.5 0,0.9 -1,3 -2,2.1 -1,-1.1 -3,-0.1 -4,-0.9 -1,0.3 -4,1.9 -2,-0.2 -2,-1 -1,-3.4 -2,-5.1 -1,-1.3 -2,-1.8 -4,-2.3 -1,0 -3,-0.3 -4,-0.2 -1,-0.1 -3,-0.1 -4,0.1 -2,-0.3 -1,-2.3 -3,-2.6 -2,-1.1 1,-2.4 -1,-3.5 0,-1.6 -2,0.6 -2,-1.2 0,-1.7 -2,-0.5 -3,-1.3 -1,-0.7 -2,-2.3 -3,-1.3 -2,0.3 -1,2.5 -2,3.3 -1,1 -3,-1.1 -4,0.1 -1,0.8 -1,-1.9 -2,-1.9 -2,-1 -6,-1 -7,1.6 -1,1.5 0,3.8 -2,5 -1,-0.4 -2,-2.8 -3,-2.8 -2,-0.1 -4,-1.3 -5,0.3 -1,0.9 -1,2.9 -2,2.7 -2,0.9 -4,-0.1 -6,1.3 0,1 0,2 0,3 -2,1.4 -2,6.3 0,7.7 -1,2.4 -1,4.4 2,3.6 3,5.1 -6,1.4 -5,4.5 3,-0.8 2,3.9 4,2 0,-3.5 3,-3.8 6,-4.1 3,-3.7 8,0.3 10,-4.6 3,0.6 8,2.9 7,6.8 3,1.6 3,4.1 4,5.9 6,1.4 -2,6.3 2,9 3,-0.8 5,1.1 4,4.4 -2,2.6 -7,3.4 -4,7.7 2,2.6 0,3.4 -1,5.8 0,4.2 3,2 5,2.6 0,3 -3,7.8 1,10 -2,1.5 -4,5.5 0,5.9 4,-3.1 8,2.1 4,5.5 -1,3.4 3,1.6 4,3.1 4,3.1 -1,4.7 -2,7.8 0,2.2 -2,4.5 -1,6.2 1,0 1,0.2 2,0.4 0,0 0,-1 1,-3 0,-2.1 0,-1.5 2,-1.2 2,0.2 0,-0.9 1,-2.1 0,-1.1 0,-0.9 2,0.2 1,1.2 1,0.9 3,1.3 1,0.5 1,2.4 2,4.5 1,2 2,0.7 3,-0.9 2,-1.6 1,-2 3,-1.7 3,0.4 1,-2.4 1,-4.7 -1,-2.2 -1,-2.4 0,-3.6 1,0.3 2,0.4 3,0.3 1,3.3 6,4.6 4,8.6 -1,4 5,-0.6 5,3.9 1,1 4,-2.1 5,1.6 0,2.8 2,5.5 4,2.7 3,1.6 7,-1.2 9,2.4 3,0 6,-2.7 7,1.2 2,-0.5 3,0.5 4,1.8 0,0 1,-2.2 2,-3.5 1,-1.3 0,-1.8 1,-2.8 0,-1 2,-0.7 3,0.8 1,1.5 1,1.2 2,0.4 1,-0.8 1,-1.6 1,-3.1 0,-1.4 2,-2 2,-2.6 1,-0.6 1,-2.3 1,-3.6 0,-1.3 2,0.4 2,1.6 0,1.1 1,1 2,1.4 1,0.4 2,0.8 3,0 1,-0.8 2,-0.3 4,0.4 2,0.5 1,0.5 1,2.4 0,2 1,1.4 2,0.6 0,-0.8 1,-0.7 2,0.6 1,1.1 1,1.5 2,1.5 2,0 1,0.3 2,1.8 1,1.5 2,1.6 4,2.4 2,0.8 1,0.7 2,1.3 1,0.6 1,-1 2,-1.1 1,-0.1 2,-0.6 3,-1 2,-0.4 1,-2.6 0,-3.6 0,-1.1 1,-1.7 3,-1.6 1,0 2,-0.6 2,-1.4 0,-0.7 3,-1.4 4,-2 1,-0.6 1,-0.2 1,-1.1 0,-0.9 1,-0.7 2,-0.8 1,-0.1 0,-2.8 0,-3.6 0,-0.9 2,0.1 2,1.7 0,1.6 0,0.9 2,1.9 2,1 1,0.9 1,2.6 0,1.8 1,-0.1 2,-1.1 1,-0.9 2,-0.1 3,-1.1 1,-0.9 1,-0.5 2,0.9 2,1.5 2,0.9 3,0.2 2,-0.7 2,0 3,1.2 0,1.1 1,1 4,1.5 1,-1.5 1,-2.8 3,-2.6 1,0.3 4,1.2 2,-1.6 0,-1.5 2,-1.6 1,-3.2 1,-2.4 2,-4.1 1,-6.7 1,-2.7 5,-4.4 2,-7 0,-2.4 2,-1.8 4,-2.7 2,0.3 2,2.3 0,3 2,3.1 3,6.5 4,9.5 4,-0.8 7,1.2 10,4.1 2,-2 5,-0.8 7,0.1 3,0.1 1,4.2 3,3.8 2,2.8 5,1.3 8,0 2,1.6 5,-1.3 7,-1.7 3,-1.7 6,0 8,2.4 2,0.8 4,0.7 6,2.2 2,-1.6 4,-4.4 4,-7.1 1,-3.5 3,-6.7 4,-10.1 1,-1 2,-2.8 2,-4.2 -1,-1 -1,-2.8 -2,-3.5 z" id="path4049" inkscape:connector-curvature="0" sodipodi:nodetypes="ccccccccccccccccsccccccccccccccccscccccccccscccccccccccccccccccccccccccccccccccsccccccccccccccccccccccccccccccccccccccccccccccccccscssscsscscsccsssscccsssssssssscccccccccccccccccccccccc" transform="matrix(0.9993,0.0348,-0.0348,0.9993,33.73,-34.32)" />
    <path style="fill:#c3a76b;stroke:none;display:inline" d="m 1578,643.1 c -1,2.3 0,4.7 0,7 1,1.8 0,4 2,5.2 1,2.2 4,3.8 5,6.6 1,3.5 0,7.1 -3,9.4 -2,1.5 -1,3.9 -1,5.9 1,1.8 0,3 -2,4 -1,0.5 -1,2.3 0,3.7 0,1.5 1,3.7 0,5.2 -2,1.9 -2,4.7 -4,7.2 -1,3.5 2,6.4 3,9.7 0,2 -2,3.7 -3,5 -2,0.9 -1,2.7 -1,4.2 1,1.6 1,3.7 2,4.9 1,1 3,2.2 4,3.3 2,0.8 1,3.3 2,4.6 2,1.4 3,3.4 2,5.3 0,1 -2,0.3 -3,1 -2,0.3 -1,2 -1,2.9 -2,1 -4,1.2 -5,2.8 -2,0.6 -1,2.5 0,1.7 2,-0.7 3,3.1 1,3.6 -1,-0.5 -4,-0.6 -2,1.2 1,0.9 1,2.3 0,3.5 -1,1 -3,2.5 -4,1.1 -1,-1 -3,-2.2 -4,-0.9 -1,1.3 0,2.6 1,2.7 2,0.4 1,2.6 0,3.3 -2,0.1 -2,2.5 -4,3.6 -1,0.3 -2,1.2 -3,2 -1,-0.2 -3,0.3 -4,-0.4 -1,-1.2 -3,0.2 -4,-0.4 -1,-0.8 -2,1.2 -3,1.2 -2,-0.4 -3,0.6 -4,1.3 0,0.8 -2,1.8 -2,-0.1 0,-1.7 -2,-2.5 -3,-1.8 -2,-0.2 -3,-0.5 -5,-1.1 0,-1.1 1,-2.7 0,-4 0,-2 2,-3.1 3,-5 -2,-0.7 -4,1.1 -4,0.4 -2,-0.7 -4,-2.5 -6,-1 -1,0.5 -4,1.7 -6,1.6 0,-0.8 -2,-0.9 -3,-1.6 -1,-1 -2,-1.1 -3,0.2 -2,0.9 -3,0.1 -4,1.3 0,1.2 0,3 1,4 2,1.2 2,4.6 0,4.7 -2,-0.6 -2,2.7 -4,2.3 -1,-0.4 -2,-0.3 -2,0.3 -1,-1.6 -1,-3.9 -3,-5.6 -2,-0.7 -1,-8 1,-5.5 3,4.5 3,-2.7 2,-3.9 -5,0.3 -3,-4.3 -6,-5.9 -3,-1 -9,3.8 -11,-1.8 4,-3.5 -6,-7.5 -3,-11.3 4,-3.2 -3,-5.5 -1,-9.5 0,-4.8 -5,-9.3 -2,-14.3 1,-3 4,-5 5,-7.6 1,-0.6 2,-1.3 1,-2 1,-0.4 3,-2.5 3,-1.8 3,-1.3 7,-1.4 8,-4.1 3,-1.9 -1,-4 -1,-6.7 -2,-2 4,-2.9 3,-6 -4,-0.3 1,-3.7 -1,-5.5 -1,-3.1 2,-5.1 2,-7.9 0,-3 3,-1.4 4,-4.1 3,-1.7 5,-3.7 4,-6.8 1,-2.5 2,-5.1 4,-6.6 1,-2.6 4,-4.6 3,-7.4 -3,-1.2 -1,-4.1 0,-6.6 1,-3.8 4,-5.8 5,-9.4 1,-2.9 1,-6.1 3,-8.9 3,-1.8 1,-6.6 5,-7.3 0,-0.3 0,-0.7 0,-1.1 4,0.1 7,0.9 10,1.3 2,1.6 3,3.2 2,5.2 2,0.9 7,-0.9 3,1.5 -1,5.1 6,1.4 8,4.4 4,3.2 10,2.6 12,7.4 -2,3.5 0,7.8 4,6.8 2,1.5 -1,6.1 3,5.3 2,0.1 3,0.1 5,0.1 -1,1.1 -1,2.7 -1,4 z" id="path4059" inkscape:connector-curvature="0" sodipodi:nodetypes="ccccccccccccccccccccccccccccccccccscccccccccscccccccccccccccccccscccccccccccccccccc" transform="matrix(0.9993,0.0348,-0.0348,0.9993,33.73,-34.32)" />
    <path style="fill:#f6e1b9;stroke:none;display:inline" d="m 1581,637.1 c 2,-1.7 0,-4.8 2,-6.8 1,-1.8 2,-3.4 3,-5.3 0,-2.2 1,-4.3 3,-5.6 3,-2.6 3,-6.5 3,-10 -1,-2 -1,-4.6 2,-5.6 1,-1.4 4,-2.3 4,-5.1 -1,-2.2 -1,-4.5 -2,-6.8 -1,-2.9 0,-5.7 0,-8.5 2,-1.7 3,-3.2 3,-4.8 2,-2.3 0,-5 1,-7.2 1,-1.3 4,-1.5 4,-3.7 0,-2.3 -1,-4.6 -1,-6.9 0,-2.8 -2,-5.8 0,-8.5 1,-2.3 1,-5 2,-7.4 2,-2.4 5,-3 7,-5.5 1,-1.6 3,-3.3 4,-4.6 2,-2.3 5,-5.2 3,-8.6 0,-1.4 2,-2.6 4,-2.4 1,-0.1 2,1 4,-0.9 1,-1.5 -1,-3.8 1,-4.6 2,-1.1 5,-0.6 6,-2.6 2,-1.5 3,-4.1 3,-6.5 0,-3.6 1,-6.7 2,-10.1 1,-2.5 3,-4.4 4,-6.7 1,-1.6 1,-3.4 2,-4.9 1,-1 3,-1.4 4,-2 0,-1.8 -2,-1.7 -3,-0.8 -2,0.7 -3,-1.3 -4,-0.9 -2,-0.2 -4,0.1 -5,-0.9 -3,-1.5 -6,0 -8,-2.4 -2,-2.5 -5,-3.2 -8,-4.4 -1,-0.3 -3,0.2 -4,-1.6 -1,-0.7 -2,-1.3 -2,-2.3 -2,-1 -3,1 -4,1.9 -1,0 -3,-1.5 -4,-0.3 -1,1.3 -2,1.1 -4,0.3 -2,-0.5 -4,-1.5 -5,-3 -1,0 -2,1.5 -3,1.8 -1,1.5 -3,0.6 -4,1.3 -1,-1.1 -2,-1.8 -3,-0.9 -2,-0.7 -3,-0.3 -4,0.8 -1,0.8 -4,0.2 -5,-1 0,1.3 -1,3.1 -2,4.1 -1,3.4 -3,6.6 -4,10.1 0,2.7 -2,5.5 -4,7.1 -2,-1.5 -4,-1.4 -6,-2.2 -2,-2.4 -5,-4.1 -8,-2.4 -2,0.4 -5,3.3 -7,1.7 -3,1.3 -6,2.8 -8,0 -2,0.4 0,-3.7 -3,-3.8 -2,-0.9 -5,-2.1 -7,-0.1 -3,-2.9 -6,-4.9 -10,-4.1 -1,-3 -2,-6.4 -4,-9.5 2,-0.7 2,-2.7 0,-3 -2,0.9 -4,0.3 -4,2.7 3,2.6 -1,4.3 -2,7 1,2.6 0,4.3 -1,6.7 1,1.6 -1,1.7 -1,3.2 2,2.8 -1,1.9 -2,1.6 -2,-0.2 -2,1.1 -3,2.6 0,1.6 0,3.3 -2,3.5 -2,-1.1 -3,-1.5 -2,0.6 3,1.3 1,4.9 3,5.7 3,-0.5 6,1.4 9,3.2 1,3.5 4,0.3 6,1.5 2,3.2 -3,2.2 -5,2.9 0,1.8 -1,6.7 3,5.7 4,0.1 -2,2.8 0,4.4 2,-0.5 4,-1.6 6,-2.2 -1,-3 3,-2.7 2,-5.7 -1,-2.6 1,-1.7 3,-2.1 1,-2 3,-0.4 3,1.6 1,2.6 3,0.9 5,1.4 0,2.2 3,-0.4 2,1.3 -2,2.9 3,2.4 5,4.2 0,2.5 3,4.4 0,6.3 -2,2.3 -1,5.8 -3,8.1 0,2.5 -3,2.6 -2,4.9 1,3.1 4,4.5 6,4.5 -1,2.7 -3,4.4 -3,7.5 -1,2.8 -1,5.8 -3,8 -1,2.9 -4,3.6 -6,5 0,1 0,1.7 -1,2.3 3,1 4,0.5 5,1.5 1,0.9 2,2 4,2 2,0.1 1,0.1 2,0.7 2,0.4 3,0.2 3,1.3 0,1.2 0,2.2 -1,2.9 0,0.7 -1,0.7 0,1.7 1,1.1 1,2.1 0,2.3 -1,0.2 -2,0.7 -2,1.6 1,0.9 2,1.8 2,2.5 0,0.7 1,0.8 1,1.6 0,0.8 0,2.4 -1,3.1 0,0.6 -1,1.8 -2,2 0,0.2 0,3.9 -1,4.1 -1,0 -1,0.4 -2,1 -1,0.6 -4,1.9 -5,2.7 0,1 -1,1.5 -2,1.5 -1,0.1 -2,1 -2,1.6 l 0,0 c 0,0.7 0,0.6 0,0.6 3,-0.8 2,2.9 4,3.9 0,0.4 0,0.8 0,1.1 4,0.1 7,0.9 10,1.3 2,1.6 3,3.2 2,5.2 2,0.9 7,-0.9 3,1.5 -1,5.1 6,1.4 8,4.4 4,3.2 10,2.6 12,7.4 -2,3.5 0,7.8 4,6.8 2,1.5 -1,6.1 3,5.3 2,0.1 3,0.1 5,0.1 1,-0.8 1,-1.5 2,-2 z" id="path4051" inkscape:connector-curvature="0" sodipodi:nodetypes="cccccccccccsscccccccccsccccccccccccccccccccccccccccccccccccccccccccccccccccccccccccccscscscscsccscsscccccccccccccc" transform="matrix(0.9993,0.0348,-0.0348,0.9993,33.73,-34.32)" />
    <path style="fill:#f1c872;stroke:none" d="m 1528,601.5 c 0,-0.6 1,-1.5 2,-1.6 1,0 2,-0.5 2,-1.5 1,-0.8 4,-2.1 5,-2.7 1,-0.6 1,-1 2,-1 1,-0.2 1,-3.9 1,-4.1 1,-0.2 2,-1.4 2,-2 1,-0.7 1,-2.3 1,-3.1 0,-0.8 -1,-0.9 -1,-1.6 0,-0.7 -1,-1.6 -2,-2.5 0,-0.9 1,-1.4 2,-1.6 1,-0.2 1,-1.2 0,-2.3 -1,-1 0,-1 0,-1.7 1,-0.7 1,-1.7 1,-2.9 0,-1.1 -1,-0.9 -3,-1.3 -1,-0.6 0,-0.6 -2,-0.7 -2,0 -3,-1.1 -4,-2 -1,-1 -2,-0.5 -5,-1.5 -1,1.1 -3,1.3 -5,0.9 -2,-2.7 -5,1.4 -7,-0.9 0,0.5 -1,0.9 -1,1.4 0,4 5,0.8 7,2.5 -4,-0.1 -7,2.8 -11,4.1 -3,2.2 -7,2.1 -9,5.3 -3,3 -5,6.7 -9,8.5 -2,0.5 -2,-5.2 -4,-1.4 -2,1.6 -2,3.4 -4,5 -5,1.8 -9,-4.6 -14,-2.6 -1,0.4 -3,-2.4 -6,-1.8 -2,-2.4 1,-10 -5,-7.1 -3,1.3 -5,5.2 -3,8.2 1,3.4 -5,-3.1 -7,-0.5 -2,4.6 -9,0.3 -12,4.5 -1,2.5 -5,2.6 -4,-0.6 -3,-0.8 -7,2.4 -9,-1.4 0,-5 -6,-1.5 -6,1.5 -2,2 -7,2.1 -9,1.7 1,-2.9 -7,-1.3 -4,1.8 1,3.6 -2,4.2 -4,6.3 -3,1.1 -1,-7.1 -5,-3.5 2,3 -1,3.1 -3,2.2 -3,1.1 -6,1 -9,2.7 -3,-1.3 -2,-5 -3,-8.1 -2,0.4 -7,-2.2 -3,-4.9 3,-2.8 -5,-3.4 -2,0.6 0,5 -9,2.4 -4,-1 3,-2 2,-4.7 2,-7.3 3,-3.2 2,-6 -2,-6.1 -4,-3.1 -9,5.6 -12,1.7 l 0,-0.5 c -4,1.2 -3,5.4 -6,6 -3,1.4 -6,-2.8 -9,-1.4 2,3.5 -3,3 -3,6.4 -1,-0.6 -4,-2.4 -5,0.3 -2,-1 -6,-0.5 -8,1.9 1,4 -3,1.5 -5,0.7 -3,0.5 -5,4.9 -8,5.4 0,2.8 7,0.6 4,3.9 -2,1.3 -2,5.8 0,6.5 3,-1 4,-5.1 8,-3.9 3,0.3 3,2.1 4,4.7 2,3.2 5,5.9 7,9.2 2,-2.4 4,-3.6 6,-0.6 3,1.2 2,3.7 1,5.9 1,3.5 7,0.9 8,4.6 1,1.4 5,5.6 1,5.1 -3,-0.2 -5,2 -5,4.8 2,3.2 -3,5.9 -2,8.1 3,2.5 -6,2.9 -3,6.7 2,2.8 3,-1.8 6,0.4 3,1 3,6.4 7,5.5 1,2.8 5,1.8 5,4.8 0,2.3 3,4.6 0,6.6 -2,3.2 3,7.9 5,4.5 2,0.3 2,-5.1 4,-1.7 -1,3.6 3,3.9 4,7.1 1,-1.3 2,-4.2 4,-4.4 -1,-2.6 1,-7.3 4,-4 1,2.2 -5,4.6 -2,6.4 4,0 3,-5.1 7,-3.8 3,-1.5 2,-6.6 5,-8.1 2,-3.1 6,-1.5 9,-3 3,-2.7 5,2 5,4.3 1,1.7 0,3.3 0,4.6 1,3.6 6,0.6 6,4.8 0,2.4 5,0.4 6,-0.8 2,-2.9 5,-2.2 8,-1.5 2,-0.7 5,-2.9 7,-1.9 3,-0.4 3,3.7 6,2.7 2,2.2 4,4.7 4,7.6 1,4 4,1 6,0.1 4,0.3 5,-3.3 6,-5.6 2,-2.3 5,-3.7 7,-0.7 2,1.1 2,4.3 4,5.7 3,1.4 6,3.1 9,5.3 2,2.4 7,1.5 8,5 -1,2.8 2,2.7 3,4.5 1,-0.4 3,-2.5 3,-1.8 3,-1.3 7,-1.4 8,-4.1 3,-1.9 -1,-4 -1,-6.7 -2,-2 4,-2.9 3,-6 -4,-0.3 1,-3.7 -1,-5.5 -1,-3.1 2,-5.1 2,-7.9 0,-3 3,-1.4 4,-4.1 3,-1.7 5,-3.7 4,-6.8 1,-2.5 2,-5.1 4,-6.6 1,-2.6 4,-4.6 3,-7.4 -3,-1.2 -1,-4.1 0,-6.6 1,-3.8 4,-5.8 5,-9.4 1,-2.9 1,-6.1 3,-8.9 3,-1.8 1,-6.6 5,-7.3 0,-0.3 0,-0.7 0,-1.1 0,-0.3 0,-0.7 0,-1.1 -2,-1 -1,-4.7 -4,-3.9 0,0 0,0.1 0,-0.6 z" id="path4091" inkscape:connector-curvature="0" sodipodi:nodetypes="ccscsccscssscscsccccsccccccccccccccccccccccccccccccccccccccccccccccccccsccccccccccccscccccccccccccccccscccccccccccc" transform="matrix(0.9993,0.0348,-0.0348,0.9993,33.73,-34.32)" />
    <path sodipodi:nodetypes="ccccccsccccccccccccccccccccccccccccccccccccccccccccccccccccccccccccccccccccccccccccccccccccccc" d="m 1325,399.1 c -1,0.3 -2,-2 -1,-2.8 0,-1.3 1,-2.8 0,-4.2 -1,-1.1 -2,-2.2 -1,-3.6 0,-1.2 -2,-1.7 -2,-2.8 -1,-1.6 0,-3.8 -2,-4.7 -1,-0.6 -1,-0.9 -2,-1.6 -1,-0.2 -1,-0.6 -1,-0.8 -2,0.3 -2,1.5 -3,2.7 1,4 -4,1.3 -5,3.4 -2,2.9 -3,5.4 -6,6.6 -1,2.9 -3,-0.1 -4,-1.5 -3,-3.1 -6,-2.2 -9,-1 -2,-1.2 -2,-6 -6,-4.7 -3,1.4 2,6.2 -2,6.5 -2,2 1,5.7 -2,7.6 -3,1.2 -2,3.5 0,5.2 0,2.9 3,3.3 2,5.7 -1,2.3 1,4.5 1,6.4 -4,0.5 -2,3.1 -1,5 0,4.6 -6,1.4 -6,5.7 -1,2.1 -4,4.5 -1,7.1 -3,2.7 3,3.7 2,5.5 0,3.8 -4,1.4 -6,3.3 -1,2.2 -4,3.3 -6,5.4 3,-0.6 3,3.6 5,5 -1,2.7 -8,2.4 -5,6.5 2,3.2 2,7.3 4,10.3 1,3.6 2,7.4 2,11 -1,2 -4,4.3 -4,5.7 2,-1.1 6,-3.7 8,-0.6 0,2.4 0,6 -3,6.1 -4,2.6 4,0.4 3,3.9 0,2.2 -2,4.3 -3,5.5 -2,1.2 -5,1.5 -8,2.1 -1,2.5 -3,4.2 -2,7.2 -3,2.9 3,5.6 2,8.1 -3,1.7 -6,3.2 -6,6.7 0,3.1 6,0.7 6,4.2 1,2.5 4,3.5 5,5.9 1,1 4,0.3 3,3 -1,1.7 2,3.7 -1,4.2 2,2.4 -1,1.7 -1,3.8 3,-0.2 3,3.8 1,4.7 -1,2.2 2,4.3 0,6.6 1,3.5 6,1.4 6,-1.5 2,-0.8 1,4.3 3,5.5 2,2.5 6,-1.4 6,2.7 1,2.5 3,4 6,3.9 3,1.4 4,5.9 7,5.7 3,0.4 6,3.3 8,3.2 3,-2 5,2.3 5,4.3 2,2.7 6,1.2 7,3.7 -1,3.5 3,4.8 5,6.3 0,1.6 2,0 3,1.3 2,0.8 6,3.3 5,-0.7 2,-2.4 6,-2.9 8,-1.9 1,-2.7 4,-0.9 5,-0.3 0,-3.4 5,-2.9 3,-6.4 3,-1.4 6,2.8 9,1.4 3,-0.6 2,-4.8 6,-6 -1,-2.9 -1,-6.2 0,-8 -2,-2.1 -8,-2.3 -7,-7.6 1,-2 4,-3.4 7,-4.4 3,2.4 5,-5.8 1,-2.8 -4,1.7 -4,-4.3 -4,-6.6 -1,-3.8 3,-8.2 -2,-10.6 -2,-1.8 -3,-5.1 0,-6.3 -1,-3.3 3,-4.9 4,-7.3 -4,0 3,-4 1,-6.9 0,-3.1 -3,-6.9 1,-8.2 0,-2.5 -7,-5.8 -3,-7.5 3,-0.3 3,-5.6 7,-3.8 5,-0.5 2,-6.7 -2,-6.7 -1,-1.7 1,-4 1,-6.2 1,-3.1 6,-4.7 2,-7.8 -1,-1.5 -5,0.3 -4,-3.1 4,-3.4 0,-8.6 -4,-5.5 -4,-0.4 -2,-4.4 0,-5.9 -4,-2.2 -1,-7 -1,-10 -2,-0.6 -5,1.6 -5,-2.6 1,-2.4 3,-3.2 1,-5.8 -3,-4.3 2,-5.1 4,-7.7 1,-3.3 -1,-5.2 -4,-4.4 -4,-2.7 4,-7.6 -2,-9 -1,-1.8 -1,-4.3 -4,-5.9 1,-3.9 -4,-6.2 -7,-6.8 -2,4.9 -7,0.9 -10,4.6 -3,0.3 -6,0.6 -6,4.1 -2,1.9 -1,-2.8 -4,-2 -1,-3.1 8,0.6 5,-4.5 -3,0.8 -3,-1.2 -2,-3.6 -2,-1.4 -2,-6.3 0,-7.7 0,-1 0,-2.1 0,-3 z" style="fill:#f6e1b9;stroke:none;display:inline" id="Dep_55" inkscape:connector-curvature="0" transform="matrix(0.9993,0.0348,-0.0348,0.9993,34,-34.3)" />
  </g>
  <g inkscape:groupmode="layer" id="layer1" inkscape:label="Empire allemand" style="display:inline" transform="translate(0,-6.1035156e-6)">
    <path style="fill:none;stroke:#ffe400;stroke-width:4;stroke-linecap:round;stroke-miterlimit:4;stroke-opacity:1;stroke-dasharray:none;stroke-dashoffset:0;display:inline" d="m 452,394.7 c -2,-0.2 -4.16814,0.8823 -6,-0.4 -1.21788,-0.85251 -3.36784,-2.14031 -4,-4.1 -0.3991,-1.23722 -0.91722,-2.53311 -2,-2.1 -1.93872,0.77549 -4.09737,-2.40263 -6,-0.5 -1.10454,1.10454 -2.00496,-0.9005 -3,-1 -2.01234,-0.20123 -3.51079,1.43454 -4,3 -0.56672,1.81351 -2.58242,0.76373 -3,2.1 -0.61419,1.96539 -3.40334,1.11003 -4,2.9 -0.44272,1.32816 -1.0426,3.55673 -3,3.1 -1.08879,-0.25405 -2.82782,-0.11576 -4,0.4 -3.87904,1.70678 -7.02749,-0.52692 -11,0.4 -2.03344,0.47447 -3.04489,1.43317 -5,0.7 -2.05353,-0.77007 -0.45089,-2.43779 -2,-4.4 -1.55406,-1.96848 -4.10474,-2.64763 -6,-1.7 -1.14543,0.57271 -3.16454,-0.38482 -4,0.2 -1.27968,0.89578 -1.63207,3.40047 -3,4.7 -2.69715,2.5623 -6.06302,1.63386 -10,2.5 -1.13895,0.25057 -2.01361,0.7356 -3,0.9 -2.0335,0.33892 -1.97875,-1.43262 -4,-1.5 -1.01924,-0.034 -0.97051,-1.49705 -3,-1.7 -1,-0.1 -0.99504,-1.8005 0,-1.9 2.01234,-0.20123 3.836,0.50419 5,-1.3 0.84683,-1.31259 -1.1705,-2.83672 0,-3.5 1.87409,-1.06198 -0.0242,-2.31976 -1,-1.1 -1.02458,1.28072 -1.86341,-0.11984 -3,0.6 -1.88907,1.19641 -3.07807,2.06822 -6,2.75 -0.73038,0.17042 -1.83082,0.29925 -3,0.65 -1.92521,0.57756 -0.3475,2.18013 -1,2.8 -1.62115,1.54009 -3.45428,1.61799 -5,2.7 -1.68889,1.18222 -1.10614,2.2162 0,1.7 1.92017,-0.89608 3.06155,3.6 1,3.6 -1.11803,0 -3.96707,-0.73593 -2,1.1 1.03387,0.96494 0.86993,2.19105 -1,3.5 -1.15857,0.811 -2.89859,2.3217 -4,1 -0.90536,-1.08643 -2.16751,-2.52708 -4,-1 -1.2,1 0.007,2.46827 1,2.7 2.00763,0.46845 1.18872,3.02263 0,3.3 -1.94768,0.45446 -1.94828,2.51092 -4,3.4 -0.95796,0.41511 -1.81579,1.60395 -3,1.9 -0.98936,0.24734 -3.11503,0.34073 -4,-0.5 -1.13249,-1.07586 -3.06705,0.19971 -4,-0.5 -1.07629,-0.80722 -2.01361,1.2644 -3,1.1 -2.0335,-0.33892 -3.3229,0.0844 -4,1.1 -0.44376,0.66564 -2,1.7 -2,-0.2 0,-1.7 -1.84404,-2.05413 -3,-1.9 -1.99234,0.26565 -3.40902,0.15233 -5,-1.2 -0.83813,-0.71241 0.47565,-2.43036 0,-4 -0.58001,-1.91405 3.73918,-2.97812 3,-4.9 -0.77326,-2.01049 -3.48041,0.66907 -4,0.2 -0.99587,-0.89904 -2.34681,-0.9633 -3.1789,-1.66531 -0.35928,-0.30311 1.02976,-1.05745 1.1789,-1.53469 0.8588,-2.74817 -1.74058,-4.44058 -4,-6.7 -1.3435,-1.3435 -2.20513,-4.2141 -3,-6.4 -1.21114,-3.33064 -5.26261,-2.60556 -8,-1.1 -1.76117,0.96864 -2.5065,-5.12205 -2,-7.3 0.52098,-2.24022 2.17538,-2.76307 3,-4 2.18808,-3.28212 0,-6.25181 0,-9.7 0,-2.50799 -0.74619,-5.01817 -3,-6.1 -2.82365,-1.35535 -5.20583,-2.61981 -7,-4.1 -2.49238,-2.05622 -6.02864,-1.90955 -9,-2.9 -3.03134,-1.01045 -6.29234,-5.55782 -4,-7.3 3.30287,-2.51018 7.08714,-1.64803 9,-3.8 2.32432,-2.61486 0.0385,-4.20769 -1,-6.7 -1.11538,-2.67692 5.66848,-4.03206 3,-5.9 -3.29327,-2.30529 0.38437,-3.19272 -1,-5.5 -1.7249,-2.87484 2.49483,-4.87002 3,-7.8 0.50972,-2.95638 2.03894,-1.89186 4,-4 2.31575,-2.48943 4,-3.34739 4,-6.7 0,-2.6 2.53521,-4.44695 4,-6.4 1.67141,-2.22854 5.07627,-5.17183 3,-7.3 -2.28321,-2.34029 0.18528,-4.03363 1,-6.6 1.18895,-3.74518 3.91426,-5.72564 5,-9.2 0.91498,-2.92794 0.47756,-6.58025 3,-8.8 2.5886,-2.27797 1.0195,-6.46312 5,-7.1 1.03092,-0.16495 1,-0.7 1,-1.1 0,-0.3 0.32,-0.86 0,-1.1 -1.82603,-1.36953 -1.42965,-5.84209 -4,-4 -3.62502,2.59793 -6.04799,-0.47703 -9,-1.7 -4.05235,-1.67883 4.6242,-4.63185 2,-6.6 -3.54265,-2.65699 -2.5793,-4.28762 -2,-7.3 0.5756,-2.99311 0.61584,-4.25944 4,-7.7 2.76612,-2.81222 -4.89438,-2.87955 -3,-6.1 0.51706,-0.879 6.35734,1.34668 4,-1.6 -1.68088,-2.1011 -7,1.2 -7,-2.8 0,-0.5 1.37165,-0.96552 1,-1.3 -0.80055,-0.7205 -3.01857,-0.37082 -2,-0.6 4.91305,-1.10544 -1.62372,-1.1047 -2,-3.4 -0.6471,-3.94731 -7.35188,-3.72029 -6,-7.1 1.24568,-3.11421 0.0124,-3.07202 -2,-2.2 -3.98794,1.72811 -3.64072,-2.90239 -6,-4.2 -1.5075,-0.82912 -2.84817,1.17469 -6,1.7 -3.61214,0.60202 -3.30581,-3.30728 -6,-3.9 -3.03232,-0.66711 -4.08834,-1.9508 -8,-4.2 -3.17458,-1.82538 -6.12227,-2.35109 -8,-1.6 -3.50984,1.40394 -2.34502,0.78414 -2,-1.7 0.67409,-4.85341 -3.83656,-2.90194 -7,-4.8 -2.57391,-1.54434 -3.54589,-2.59155 -5,-4.7 -2.64103,-3.82949 -6.22454,0.82647 -8,-1.6 -2.53919,-3.47023 -6.64435,-1.64813 -7,-4.6 -0.65789,-5.46051 -5.2093,0.34372 -9,-1.4 -1.89698,-0.87261 -3.26552,-2.96103 -1,-5 0.37165,-0.33448 -3.0002,-2.42 -4,-2.4 -4.00045,0.08 0.6811,0.51674 2,-1 1.64045,-1.88651 -7.82261,-0.48005 -6,-3.7 1.67483,-2.95887 0.11856,-5.15374 2,-6.8 3.10295,-2.71508 1.42029,-3.51102 -2,-5.7 -3.39112,-2.17032 -4.61019,0.41626 -7,-1.4 -3.34862,-2.54495 -5.61877,-3.37625 -9,-2.7 -3.29481,0.65896 -3,0.0732 -3,-2.9 0,-3.83275 -4.73407,-0.33737 -5,-1.8 -0.7871,-4.32903 -6.44531,-0.2422 -5,-4 1.57338,-4.09078 -1.16479,-6.67359 -4,-8.8 -2.42124,-1.81593 -7.29134,-2.22757 -8,-5.7 -0.29994,-1.46971 -4.18403,-6.55706 -1,-7.3 2.92315,-0.68207 9.72497,1.88492 8,-2.6 -1.32434,-3.44327 1.695,-4.2794 4,-6.4 3.09529,-2.84766 -9.02234,-4.23855 -5,-8.1 1.44458,-1.38679 3.47292,-2.36751 5,-4.2 2.58067,-3.096799 -4.16285,-6.933578 -2,-11.8 1.91187,-4.301714 -2.39085,-1.525618 -5,-4.2 -2.12387,-2.176966 -3.23257,-3.3124 1,-4.3 2.53199,-0.590797 -5.71718,-3.220179 -5,-5.3 1.34251,-3.893284 -4.04205,-5.896887 0,-9.4 2.60576,-2.258324 2.34126,-6.212733 1,-9.7 -0.67732,-1.761033 -5.31835,0.584805 -4.96169,-3.545235 0.0277,-0.320647 0.62597,0.03682 0.96169,0.04523 0.99969,0.02504 3.01453,0.202906 4,0.4 2.02152,0.404304 3.09022,1.035336 4,2.4 1.09404,1.64106 2,2.917458 2,5.2 0,2.828427 1,-0.1 2,0.2 1.28862,0.386587 2.89546,-0.0045 4,1.1 0.90554,0.905539 1.54368,-1.324259 2,-2.1 0.6493,-1.103814 2.49404,-0.917893 3,0.6 0.54406,1.632176 3.36682,0.347175 3,-0.9 -0.6563,-2.231427 1.44178,-0.516102 2,-1.8 0.53643,-1.233792 -0.0757,-3.046216 1,-3.1 1.04273,-0.05214 1.97624,-0.195249 3,-0.4 1.19695,-0.23939 -0.99256,-2.299256 1,-2.1 2.01234,0.201234 4.08205,0.358667 7,-0.4 2.16412,-0.56267 3.77313,1.898954 6,2.4 1.96095,0.441214 1.43826,0.65061 3,1.9 1.24939,0.999512 1.23223,0.93934 3,2 1.40639,0.843836 2.32894,3.620404 4,2.2 1.98104,-1.683886 -0.40824,-5.177902 -1,-7.9 -0.42486,-1.954353 -0.79747,-4.162445 1,-5.9 1.23699,-1.195761 2.05798,-3.502409 0,-4.6 -0.95032,-0.506839 -1.11556,-2.225629 0,-2.3 2.11427,-0.140951 -0.21788,-2.347487 1,-3.2 1.83186,-1.282301 3.0467,-1.365378 4,-2.7 1.04784,-1.466979 1.88026,-4.076371 3,-5.7 0.88683,-1.285899 -0.15898,-2.427183 -1,-3.1 -1.21976,-0.975805 1.15898,-1.727183 2,-2.4 1.21976,-0.975805 0.9432,-3.340059 3,-3.7 1.97252,-0.345191 1.70006,-1.95335 3,-2.3 1.93488,-0.515969 0.34324,-0.935957 0,-2 -0.79821,-2.474442 2,0.6 2,-0.6 0,-1.3 -2,-1.9 -2,-3.4 0,-1.5 0.938,-2.4982015 2,-3.1 1.94543,-1.1024096 1,-2.2 1,-3.5 0,-1.1 -0.7285,-1.77647773 1,-2.9 0.67075,-0.43599068 1.4072,-3.3407195 0,-3.2 -1.5543,0.1554298 -0.67904,1.3831153 -3,0.3 -0.92413,-0.4312602 -1.89546,-0.6954639 -3,-1.8 -0.90554,-0.9055385 -2.00383,1.6671771 -3,1.8 -2.04347,0.2724625 -2.96115,-1.4038849 -4,-1.3 -1.99007,0.1990074 -2.61224,-1.359176 -3,-2.6 -0.64042,-2.0493554 -3.22544,-4.260494 -5,-2.9 -1.30161,0.9979019 -2,1.7470911 -2,-0.4 0,-1.56205 -1.00948,-2.458057 -2,-3.3 -1.55406,-1.320949 -1.50263,-0.05201 -3,-1.2 -1.68162,-1.289243 -2.7794,-1.59116 -4,-3.3 -1.23162,-1.72427 -3.50257,-2.193316 -3,-3.5 0.56074,-1.457932 1,-1.759878 1,-3.4 0,-1.640122 -0.74424,-3.348849 -2,-3.6 -1.05612,-0.211224 -2.51459,-0.196006 -2,-2.1 0.52182,-1.930727 -1.49526,-0.933412 -1,0.8 0.54944,1.923048 -2,1.1 -2,-0.5 0,-1.3 -1.56964,-2.361978 -1,-3.9 0.48624,-1.312848 -2.60584,-1.440155 -2,-3.5 0.42325,-1.439048 -2.91741,-2.149553 -1,-3.3 1.09813,-0.658876 -1.9524,-2.061882 -1,-3.3 1.04899,-1.363682 0.11417,-2.854331 -1,-3.3 -1.89373,-0.757491 0,-1.7 0,-2.2 0,-0.9 -1.91264,-0.648518 -1,-2.2 1.29861,-2.207629 3.60079,-1.458108 3,-2.9 -0.46154,-1.107692 0,-1.779535 0,-3.5 0,-1.16619 1,-1.2 1,-1.9" id="path3309" inkscape:connector-curvature="0" sodipodi:nodetypes="ssssssssssssssssssssssssssssssssssssssssssssssssssssssssssssssssssssssssssssssssssssssssssssssssssssssssssssssssssssssssssssssssssssssssssssssssssssssssssssssssssssssssssssssssssssssssssss" />
  </g>
  <g style="display:inline" inkscape:label="departements actuels" id="Departments boundaries" inkscape:groupmode="layer" transform="translate(-1234,-361.10001)">
    <path sodipodi:nodetypes="ccccccccccccccccccccccccccccccccccccccccccccccccccccccccccccccccccccccccccccccccccccc" d="m 1490,742 c 4,-3.5 -6,-7.5 -3,-11.3 4,-3.2 -3,-5.5 -1,-9.5 0,-4.8 -5,-9.3 -2,-14.3 1,-3 4,-5 5,-7.6 1,-0.6 2,-1.3 1,-2 -1,-1.8 -4,-1.7 -3,-4.5 -1,-3.5 -6,-2.6 -8,-5 -3,-2.2 -6,-3.9 -9,-5.3 -2,-1.4 -2,-4.6 -4,-5.7 -2,-3 -5,-1.6 -7,0.7 -1,2.3 -2,5.9 -6,5.6 -2,0.9 -5,3.9 -6,-0.1 0,-2.9 -2,-5.4 -4,-7.6 -3,1 -3,-3.1 -6,-2.7 -2,-1 -5,1.2 -7,1.9 -3,-0.7 -6,-1.4 -8,1.5 -1,1.2 -6,3.2 -6,0.8 0,-4.2 -5,-1.2 -6,-4.8 0,-1.3 1,-2.9 0,-4.6 0,-2.3 -2,-7 -5,-4.3 -3,1.5 -7,-0.1 -9,3 -3,1.5 -2,6.6 -5,8.1 -4,-1.3 -3,3.8 -7,3.8 -3,-1.8 3,-4.2 2,-6.4 -3,-3.3 -5,1.4 -4,4 -2,0.2 -3,3.1 -4,4.4 1,2.3 0,5.9 -3,3.7 -3,0.7 -3,4.9 -4,7.4 2,3 -4,3.9 -4,1.5 -4,-1.6 -7,1.8 -6,5.1 -1,4.1 -7,-1.5 -7,3.2 0,2.3 -3,7.3 1,7.3 3,0.1 2,4.9 0,5.4 0,2.6 -2,4 0,6.6 2,3 -2,3.4 -4,3.7 -2,2 -5,1 -7,1.6 -2,-1.7 -2,-8 -5,-4.5 -1,1.8 -2,5 -5,4.7 -2,-1.1 -5,-2.6 -6,0 -2,1.9 -6,-1.6 -7,1 -1,2.8 -1,5.4 -3,7.3 -1,1.3 -1,2.8 -1,4.2 3,3.5 4,0 5,-2 0,-4.7 4,-2.1 6,0.5 3,1.5 3,5.1 3,7.8 1,1.4 2,5 -1,7 -4,0.6 -3,6.6 -6,6.5 -2,-2.5 -7,0.3 -5,2.4 4,0.8 0,1.6 -1,2.4 -2,3.9 2,1.8 4,1.1 0,1.4 1,1.7 3,2.4 -1,2.2 -1,4.4 0,6.5 -2,2.7 2,6.1 4,3.2 4,-1.3 3,2.7 2,4.7 0,2.5 3,5.7 -1,6.8 -2,3 4,1.8 5,4 3,3.3 6,5.5 8,8.7 3,-2.1 7,1.9 10,-2.2 1,-1.5 4,-2 4,0.2 3,-1.7 6,1.4 7,-1.7 3,-2.7 7,-3.9 11,-5.2 1,-2.4 4,-3.8 7,-2.4 -2,-2.2 1,-4.1 3,-2.3 -2,-6.5 6,0.4 7,-0.8 1,-2.6 5,1.1 6,-2.2 2,-2.1 6,-1 6,-4.7 1,-2.6 3,3.6 3,-0.4 -2,-3.1 1,-5.6 4,-3 2,-0.7 7,-3.1 3,-4.9 3,1 3,-5.1 6,-1.6 2,2.5 3,0.7 1,-1.2 3,1.4 4,-1.6 4,-2.9 5,0 2,-7.4 5,-8.1 2,0.6 2,-4.3 5,-3.7 3,-2.2 5,2 6,-1.4 3,-1.9 10,-0.3 8,4.4 2,-1.7 5,-5.1 6,-1.6 2,-1.4 3,-1.1 4,0.7 5,-0.2 5,-5.1 4,-7.7 2,-3.8 6,4 9,-0.6 1,-2 2,-3.9 0,-5.9 2,-3.2 6,5.4 9,2 2,1 6,6.3 8,1.9 1,-0.9 0,-2.9 1,-3 z" style="fill:#fefee4;stroke:none;display:inline" id="Dep_70" inkscape:connector-curvature="0" transform="matrix(0.9993,0.0348,-0.0348,0.9993,34,-34.3)" />
    <path sodipodi:nodetypes="ccccccccccccccccccccccccccccccccccccccccccccccccccccccccccccccccccccccccccccccccccccccccccccccccccccc" d="m 1317,738.3 c -1,-0.1 -1,2.8 -3,2 0,-2.9 -3,-4.1 -5,-1.8 -3,1 -4,6.9 -7,3.7 -2,-2.1 0,-4.9 1,-6.6 -3,1.7 -4,-3.9 -7,-4.6 -3,0 -3,-2.9 -3,-5.3 -1,-2.5 -3,2.2 -4,3.3 -2,3.6 -6,-0.1 -8,-0.9 -4,-0.3 -4,-2.7 -3,-5.3 -1,0.5 -3,0.1 -2,-2 -3,-2 -5,5.5 -8,2.6 -4,-2.1 1,-5.6 -1,-7.7 1,-3.1 -1,-6.5 -4,-4.9 -3,-2.2 1,-4.2 3,-5.2 3,-0.9 6,-5 2,-7 -3,-1.5 1,-7.3 -4,-6.8 -1,-2.4 -2,-4.5 -3,-6.6 0,-3.1 -4,-4.1 -5,-1.2 0,2.5 -2,3.5 -4,1.1 -2,-2.4 3,-3.5 3,-6 0,-2.6 -3,-4.7 -6,-3.8 -3,0.9 -4,-3.2 -1,-4.6 0,-1.3 -1,-3.4 -3,-3.5 -3,0.8 -7,0.6 -9,-2.3 1,-2.5 3,-5.1 0,-6.9 -1,-3 -9,-3.4 -4,-4.5 5,-0.5 6,-8.6 11,-5.3 3,1.3 10,3.7 8,-2.2 1,-2.1 2,-3.6 0,-6.2 0,-3.1 7,-7.4 2,-9.3 -2,-1.2 2,-4.1 0,-6 1,-2.2 1,-4.6 0,-6.5 1,-3.5 -7,-6 -2,-9.3 2,-1.9 -4,-2.3 -5,-3.8 -4,0.5 -4,-3.5 -5,-6.2 -2,-1.3 -6,1.3 -6,-3 -3,-1.8 -2,-7.2 -7,-8.2 -2,-0.6 -2,-2.8 1,-3.3 1,-3.1 2,-6.3 4,-8.9 l -1,-0.9 0,-0.8 c 3,-1.9 7,-2 10,-0.7 3,0.4 7,2.2 4,-1.2 -1,-2.5 1,-4.5 -2,-5.3 -2,-2.9 0,-4.8 3,-4.8 2,-2.9 8,-1.3 6,-5.5 0,-4.6 -6,-5 -9,-4 -1,-3.1 4,-6.3 7,-3.9 4,4.1 7,-5 11,-1.2 1,1.9 3,-2.8 5,-1.3 l 1,0.2 1,0.2 c 3,-0.2 3,3.8 1,4.7 -1,2.2 2,4.3 0,6.6 1,3.5 6,1.4 6,-1.5 2,-0.8 1,4.3 3,5.5 2,2.5 6,-1.4 6,2.7 1,2.5 3,4 6,3.9 3,1.4 4,5.9 7,5.7 3,0.4 6,3.3 8,3.2 3,-2 5,2.3 5,4.3 2,2.7 6,1.2 7,3.7 -1,3.5 3,4.8 5,6.3 0,1.6 2,0 3,1.3 -3,0.5 -5,4.9 -8,5.4 0,2.8 7,0.6 4,3.9 -2,1.3 -2,5.8 0,6.5 3,-1 4,-5.1 8,-3.9 3,0.3 3,2.1 4,4.7 2,3.2 5,5.9 7,9.2 2,-2.4 4,-3.6 6,-0.6 3,1.2 2,3.7 1,5.9 1,3.5 7,0.9 8,4.6 1,1.4 5,5.6 1,5.1 -3,-0.2 -5,2 -5,4.8 2,3.2 -3,5.9 -2,8.1 3,2.5 -6,2.9 -3,6.7 2,2.8 3,-1.8 6,0.4 3,1 3,6.4 7,5.5 1,2.8 5,1.8 5,4.8 0,2.3 3,4.6 0,6.6 -2,3.2 3,7.9 5,4.5 2,0.3 2,-5.1 4,-1.7 -1,3.6 3,3.9 4,7.1 1,2.3 0,5.9 -3,3.7 -3,0.7 -3,4.9 -4,7.4 2,3 -4,3.9 -4,1.5 -4,-1.6 -7,1.8 -6,5.1 -1,4.1 -7,-1.5 -7,3.2 0,2.3 -3,7.3 1,7.3 3,0.1 2,4.9 0,5.4 0,2.6 -2,4 0,6.6 2,3 -2,3.4 -4,3.7 -2,2 -5,1 -7,1.6 -2,-1.7 -2,-8 -5,-4.5 -1,1.8 -2,5 -5,4.7 -2,-1.1 -5,-2.6 -6,0 -2,1.9 -6,-1.6 -7,1 -1,2.8 -1,5.4 -3,7.3 -1,1.3 -1,2.8 -1,4.2 z" style="fill:#fefee4;stroke:none;display:inline" id="Dep_52" inkscape:connector-curvature="0" transform="matrix(0.9993,0.0348,-0.0348,0.9993,34,-34.3)" />
    <path sodipodi:nodetypes="ccccccccccccccccccccccccccccccccccccccccccccccccccccccccccccccccccccccccccccccccccccccccccccccccccccc" d="m 1269,546.1 -1,-0.2 -1,-0.2 c -2,-1.5 -4,3.2 -5,1.3 -4,-3.8 -7,5.3 -11,1.2 -3,-2.4 -8,0.8 -7,3.9 3,-1 9,-0.6 9,4 2,4.2 -4,2.6 -6,5.5 -3,0 -5,1.9 -3,4.8 3,0.8 1,2.8 2,5.3 3,3.4 -1,1.6 -4,1.2 -3,-1.3 -7,-1.2 -10,0.7 -1,-0.8 -3,-1.1 -4,-2.6 1,-2.7 -4,-0.7 -6,-0.7 -3,-1.1 -5,7 -7,2.4 -1,-3.4 -4,0.4 -5,-0.9 -4,-1.5 -9,-1.9 -12,-5.8 -2,-4 -10,-4.2 -7,-9.2 -1,-3.8 1,-8.2 -1,-12.3 0,-5.7 -6,-0.9 -9,-3 -3,4 -8,-1.6 -11,2 -2,2.8 -4,2.5 -6,0.7 -5,-2.4 -3,4.7 -6,6.1 -3,0.3 -8,-0.9 -8,4.1 1,2.8 -2,1.1 -2,2.8 0,4.3 -5,2.4 -7,4.2 0,4.2 -2,4.2 -5,3.8 -1,3.7 2,9.9 -4,10.8 -3,-1.4 -6,-2 -9,-3 -3,-0.9 -7,-0.4 -10,-0.5 -6,1.6 -3,-5.2 -5,-7.5 -2,1.2 -3,-0.2 -5,-2 0,-2.1 -3,-3.4 -3,-5.7 -1,-2.4 -5,-1.2 -4,-4.3 -2,-0.2 -4,-1 -6,0.8 -4,2.7 -1,-2.5 -3,-3.9 -3,-2.9 3,-3.9 3,-6 -2,-2.2 1,-6.6 -2,-7.9 -3,1.8 -2,-4.7 -5,-2.7 -3,1.1 -1,-4.1 0,-5.2 2,1.3 5,-1.5 2,-3.3 -2,0.8 -4,-2.7 -1,-2.4 3,2.5 5,-2.5 7,0.2 1,-1.4 2,-4.7 1,-6.7 -1,-2.2 1,-3.1 2,-3.9 1,-2.8 2,-7.3 5,-7.1 5,1.5 2,-4.7 5,-5.5 3,0.2 -1,-3.2 2,-3.6 3,0.5 2,-4 3,-5.7 2,-1.6 7,-1.4 5,-5.1 -1,-3.7 -5,-2.5 -8,-1.5 -4,0.8 -3,-5.3 0,-6.2 3,-0.1 4,-2.3 2,-4.8 0,-2.7 -4,-4.5 -1,-6.9 1,-3.5 3,-2.6 5,-2.6 3,-1.4 4,0.1 6,0.8 3,-0.8 7,-3.3 5,-5.7 -2,0.9 -6,-0.6 -5,-4.4 -1,-0.8 -3,0.7 -4,-1.6 -4,-2 4,-3.6 0,-6.1 -2,-2.5 0,-6.5 -2,-8.9 -3,-2.5 1,-5.1 3,-5.6 3,-1.4 6,-0.8 8,-2.7 0,-1.9 4,-1.8 6,-2.8 3,-1.7 5,4.6 7,0.7 -2,-2.7 1,-6 4,-6.6 2,-0.3 4,-4.7 5,-1 1,3.3 4,3 7,3.9 1,2.4 5,4.7 5,0.2 0,-1.9 0,-4 1,-5.6 4,1.3 9,0.1 13,0.6 4,-1 4,4.3 8,3.2 4,1 4,5.9 8,6 0,4.7 4,4.3 7,6 4,-2.6 3,4.9 7,5.2 3,4.1 9,0.8 13,1 2,-1.4 7,-4.1 8,-0.5 1,2.7 3,6.1 4,8.9 5,1.9 6,-6.1 11,-2.8 3,1.4 7,2.3 11,0.5 1,1.1 5,5.3 6,2.5 0,-4.2 4,-6.2 7,-4.9 -2,2.8 2,2.1 3,4.2 3,-0.6 3,3.6 5,5 -1,2.7 -8,2.4 -5,6.5 2,3.2 2,7.3 4,10.3 1,3.6 2,7.4 2,11 -1,2 -4,4.3 -4,5.7 2,-1.1 6,-3.7 8,-0.6 0,2.4 0,6 -3,6.1 -4,2.6 4,0.4 3,3.9 0,2.2 -2,4.3 -3,5.5 -2,1.2 -5,1.5 -8,2.1 -1,2.5 -3,4.2 -2,7.2 -3,2.9 3,5.6 2,8.1 -3,1.7 -7,3.2 -6,6.7 0,3.1 6,0.7 6,4.2 1,2.5 4,3.5 5,5.9 1,1 4,0.3 3,3 -1,1.7 2,3.7 -1,4.2 2,2.4 -1,1.7 -1,3.8 z" style="fill:#fefee4;stroke:none;display:inline" id="Dep_51" inkscape:connector-curvature="0" transform="matrix(0.9993,0.0348,-0.0348,0.9993,34,-34.3)" />
    <path d="m 1415,921.8 c 2,0.8 2,1.7 0,2.7 -3,1.6 -4,5 -5,8.1 -1,1.5 -2,3 -3,4.5 -2,1.6 -1,4.1 0,5.7 1,1.5 -1,2.5 -1,4 -2,1.1 -2,2.3 -3,3.3 -2,2.2 -4,4.4 -6,7.1 -1,1.8 -3,3.6 -4,5.8 -1,2.1 -2,5.6 -5,5 -1,1.8 0,5 -3,4.7 -2,2 -4,3 -6,4.1 -4,0.5 -9,-1.8 -13,-0.3 -3,2 -4,-2.2 -3,-4.6 0,-2.9 -2,-3.2 -4,-3.6 -2,-2.5 -6,-1.1 -5,-5 -1,0.7 -6,2.5 -5,5.4 0,4.1 -5,2 -6,4.9 -1,2.3 -4,3.9 -6,3 -2,-0.3 -5,1.2 -6,-2 -1,-2.6 4,-5.8 0,-7.8 -3,3 -4,-0.9 -5,-3.6 -1,-1.2 -1,3.8 -1,5 -1,1.9 -1,-3.1 -2,-4 -2,-1.4 -4,-3.8 -4,-6.7 2,-1.2 1,-1.5 0,-2.5 -2,-2.4 -6,-1.8 -8,-4 1,-1 3,-4.2 1,-6.2 1,-0.8 1,-3 3,-2.8 3,1.5 5,-1.3 7,-1 4,-0.6 4,-6.4 0,-6.5 -1,-2.4 -6,-1.7 -5,-4.9 0,-3 0,-6.1 2,-8.6 3,0.7 6,-0.3 5,-3.5 -2,-1.4 -1,-2.8 1,-3.3 3,-1.7 2,-4.8 0,-6.6 2,-3.2 -2,-3.6 -3,-5.8 3,-2.4 -1,-4.4 -1,-7.3 -2,0.7 -5,-2 -3,-4.3 4,-2 2,-4.6 -1,-6.3 -3,0.3 -5,-3.1 -3,-5.4 3,0.9 6,-3.7 10,-1.8 1,0.1 6,0.7 5,-1.4 1,-4 -3,-3.8 -6,-4.8 -3,-0.4 1,-6.1 -3,-5.2 -3,2.3 -4,-0.2 -7,1 0,-1.8 -1,-3.5 -2,-5.5 0,-2.4 -2,-5.3 -4,-3.3 -1,3 -2,0.2 -3,-1.1 2,-1.1 1,-4.4 0,-6.5 2,-2.5 4,-4.2 7,-5.9 0,-2.1 -7,-1.3 -4,-5.1 1,-2.8 4,-3.6 5,-5.9 3,-1.6 7,0.3 8,-3.4 2,-2.7 2,-5.7 4,-7.7 2,-1.5 3,-5.1 4,-7.8 -1,-2.6 -2,-4.9 2,-6 2,-3.1 1,-6.7 2,-10.2 -1,-1.6 0,-3.9 2,-2.8 1,-1 0,-2.7 1,-3.5 3,3.3 6,5.5 8,8.7 3,-2.1 7,1.9 10,-2.2 1,-1.4 4,-2 4,0.2 4,3 2,8.6 5,11 2,0.4 6,2.2 5,4.9 4,-0.3 4,4.1 5,6.8 -1,3.2 -4,6.3 -6,8.6 2,2.5 3,8.5 -2,6.7 -3,-1.8 1,3.8 0,5.6 3,2.8 7,-1.6 7,-4.8 3,-0.1 0,7.2 4,5.5 1,3 5,0.3 6,2.7 3,1.7 5,-5.4 4,-0.4 -2,5.7 6,0.6 7,5.4 1,2.3 -4,3.8 0,5 3,0.7 3,1.9 1,3.9 -1,4 5,3.4 3,7.7 0,1.9 5,-0.5 2,2.9 1,5.2 7,-2.4 8,2.4 4,1.5 7,4.4 10,7.8 2,1.6 6,5.6 3,7.1 -1,4 -5,5.3 -8,7.7 -2,2.8 -9,4.8 -4,9 3,2.5 1,5.3 -2,6.6 -1,2.5 -1,5.1 2,6.9 3,1.3 5,7 8,5 l 0,-0.5 z m -88,-48.2 c -2,-1.2 1,-0.9 0,0 z" style="fill:#fefee4;stroke:none;display:inline" id="Dep_39" inkscape:connector-curvature="0" transform="matrix(0.9993,0.0348,-0.0348,0.9993,34,-34.3)" />
    <path sodipodi:nodetypes="ccccccscccccccccccccccccccccccccccccccccccccccccccccccccccccccccccccccccccccccccccccccccccccccccccccccc" d="m 1490,742 c 2,5.6 8,0.8 11,1.8 3,1.6 1,6.2 6,5.9 1,1.2 1,8.4 -2,3.9 -2,-2.5 -3,4.8 -1,5.5 2,1.7 2,4 3,5.7 -1,0.3 -1,0.7 0,1.4 0,1.3 1,3.6 -1,3.7 -2,-0.4 -2,1.3 -3,2.5 0,1.9 -3,1.3 -3,3.2 0,1.1 -1,3.6 1,2.5 2,-0.9 4,0.3 6,-0.6 3,-0.1 6,0 8,-1.3 1,-0.9 2,-1.5 3,-0.2 1,1.2 3,-0.3 3,1.7 -2,1.6 2,1 1,2.8 -1,1.7 -2,3.1 -4,2.8 -2,0.2 -1,1.8 -1,2.9 -1,1.7 -3,1.5 -4,2 -1,0.6 -1,2 -3,1.4 -2,-0.5 -2,1.4 -1,2.5 1,1.5 0,3.4 1,4.9 1,1.1 -1,1.8 -1,3 -1,1.2 -2,1.2 -3,2.3 -2,0.8 -3,2.9 -5,4.2 -1,1.3 -2,3.1 -4,3.9 -2,0.4 -2,2.2 0,2.3 1,1.3 -2,1.3 -2,2.4 -3,3.2 -6,5.1 -10,6.3 -1,0.7 1,2.4 0,3.5 -1,1.2 -3,0.6 -4,1.3 -1,0.7 -1,2 -1,3.3 -1,0.9 -1,1.4 0,2.5 2,1.3 1,4.3 -1,4.3 -3,0.4 -5,3.5 -6,5.6 -1,2.5 -4,2.3 -7,3.4 -2,1.8 -5,2.3 -7,3.3 -2,0.8 -3,-0.2 -4,0.3 -2,1.5 -3,3.1 -5,4.9 0,1.2 -2,1.7 -1,3.1 2,3 4,6.5 3,10.3 0,1.7 -1,3.3 -2,4.5 -1,1.7 0,3.8 -2,5.5 -1,1.7 1,2.7 3,3.6 1,0.8 0,2.6 -1,3.4 -1,0.9 -1,3.1 -3,3.5 -1,0.9 -4,0.3 -4,2.3 1,1.8 -2,1.2 -2,2.9 -1,1.5 -2,2.4 -4,2.9 -3,1.3 -6,2.3 -8,5 -2,3.1 -5,5 -7,7.8 -2,1.4 -4,3.7 -6,5.1 -1,1.6 -4,2.2 -4,4.4 1,1.5 2,2.4 3,3.7 l 0,0.5 c -2,2 -5,-3.7 -8,-5 -3,-1.8 -3,-4.4 -2,-6.9 3,-1.3 5,-4.1 2,-6.6 -5,-4.2 2,-6.2 4,-9 3,-2.4 7,-3.7 8,-7.7 3,-1.5 -1,-5.5 -3,-7.1 -3,-3.4 -6,-6.3 -10,-7.8 -1,-4.8 -7,2.8 -8,-2.4 3,-3.4 -2,-1 -1,-2.9 1,-4.3 -5,-3.7 -4,-7.7 2,-2 2,-3.2 -1,-3.9 -4,-1.2 1,-2.7 0,-5 -1,-4.8 -9,0.3 -7,-5.4 1,-5 -1,2.1 -4,0.4 -1,-2.4 -5,0.3 -6,-2.7 -4,1.7 -1,-5.6 -4,-5.5 0,3.2 -4,7.6 -7,4.8 1,-1.8 -3,-7.4 0,-5.6 5,1.8 4,-4.2 2,-6.7 2,-2.3 5,-5.4 6,-8.6 -1,-2.7 -1,-7.1 -5,-6.8 1,-2.7 -3,-4.5 -4,-4.9 -4,-2.4 -2,-8 -6,-11 3,-1.7 6,1.4 7,-1.7 3,-2.7 7,-3.9 11,-5.2 1,-2.4 4,-3.8 7,-2.4 -2,-2.2 1,-4.1 3,-2.3 -2,-6.5 6,0.4 7,-0.8 1,-2.6 5,1.1 6,-2.2 2,-2.1 6,-1 6,-4.7 1,-2.6 3,3.6 3,-0.4 -2,-3.1 1,-5.6 4,-3 2,-0.7 7,-3.1 3,-4.9 3,1 3,-5.1 6,-1.6 2,2.5 3,0.7 1,-1.2 3,1.4 4,-1.6 4,-2.9 5,0 2,-7.4 5,-8.1 2,0.6 3,-4.3 5,-3.7 3,-2.2 5,2 6,-1.4 3,-1.9 10,-0.3 8,4.4 2,-1.7 5,-5.1 6,-1.6 2,-1.4 3,-1.1 4,0.7 5,-0.2 5,-5.1 4,-7.7 2,-3.8 6,4 9,-0.6 1,-2 2,-3.9 0,-5.9 2,-3.2 6,5.4 9,2 2,1 6,6.3 8,1.9 1,-0.9 0,-2.9 1,-3 z" style="fill:#fefee4;stroke:none;display:inline" id="Dep_25" inkscape:connector-curvature="0" transform="matrix(0.9993,0.0348,-0.0348,0.9993,34,-34.3)" />
    <path sodipodi:nodetypes="ccccccccccccccccccccccccccccccccccccccccccccccccccccccccccccccccccccccccccccccccccccccccccccccccccccccccccc" d="m 1187,681.8 c 1,0.7 3,2.1 2,3.8 -3,0.5 -8,3.2 -6,6.2 -1,2 0,7.2 3,4.1 4,-1.6 5,3.1 4,5.6 2,2 1,4.4 1,7.2 1,3.9 -3,4.1 -5,7 -3,-2.1 -4,0.8 -6,2.7 3,1.1 2,4.8 5,6.2 -1,1 -4,0.8 -6,1.6 3,3 0,6.2 -2,9.3 2,3.9 -3,4.5 -3,8.2 1,3.3 -2,4.6 -4,5.9 -1,3.2 -3,4.6 -5,6.4 -1,4 3,7.5 0,11.5 -2,-0.6 -1,3 -4,1.6 0,0.4 0,3.9 -2,5 1,1.3 3,3 2,5.3 4,0.4 2,4.1 3,6.9 1,2 4,-5.3 4,-1.9 -2,2.8 -2,7.1 -2,9.3 -2,2.2 0,8.8 2,10.6 3,-2 6,-3.2 7,0.9 2,1.9 5,5.1 2,8.1 -1,1.7 -1,3.7 -1,5.9 1,2.4 6,0.6 4,3.9 2,2 3,5.9 7,4.2 3,1.7 8,0.7 6,5.6 -1,3.4 3,2.3 4,-0.3 3,-2.2 5,1.1 3,4 0,4.4 6,1.8 8,4.4 4,-0.6 5,6.3 9,3 4,-1.4 -1,4.7 3,4.6 1,2.7 3,5.1 5,7.1 2,2.9 9,0.7 8,5.1 -2,3.7 5,4.9 6,1 3,-3.4 7,2.4 9,-2.5 4,-1 7,-2.8 11,-3.6 1,-1.6 2,-4.4 5,-3.1 4,-0.4 9,3.6 10,-1.2 3,-2 6,-1.6 8,1.6 1,0.4 4,1.3 3,2.8 3,-4.6 9,-2.1 12,-5.7 3,-1.8 4,-1.5 7,-0.3 l 0,0.1 c 2,-2.5 4,-4.2 7,-5.9 0,-2.1 -7,-1.3 -4,-5.1 1,-2.8 4,-3.6 5,-5.9 3,-1.6 7,0.3 8,-3.4 2,-2.7 2,-5.7 4,-7.7 2,-1.5 3,-5.1 4,-7.8 -1,-2.6 -2,-4.9 2,-6 2,-3.1 1,-6.7 2,-10.2 -1,-1.6 0,-3.9 2,-2.8 1,-1 0,-2.7 1,-3.5 -1,-2.2 -7,-1 -5,-4 4,-1.1 1,-4.3 1,-6.8 1,-2 2,-6 -2,-4.7 -2,2.9 -6,-0.5 -4,-3.2 -1,-2.1 -1,-4.3 0,-6.5 -2,-0.7 -3,-1 -3,-2.4 -2,0.7 -6,2.8 -4,-1.1 1,-0.8 5,-1.6 1,-2.4 -2,-2.1 3,-4.9 5,-2.4 3,0.1 2,-5.9 6,-6.5 3,-2 2,-5.6 1,-7 0,-2.7 0,-6.3 -3,-7.8 -2,-2.6 -6,-5.2 -6,-0.5 -1,2 -2,5.5 -5,2 -1,-0.1 -1,2.8 -3,2 0,-2.9 -3,-4.1 -5,-1.8 -3,1 -4,6.9 -7,3.7 -2,-2.1 0,-4.9 1,-6.6 -3,1.7 -4,-3.9 -7,-4.6 -3,0 -3,-2.9 -3,-5.3 -1,-2.5 -3,2.2 -4,3.3 -2,3.6 -6,-0.1 -8,-0.9 -4,-0.3 -4,-2.7 -3,-5.3 -1,0.5 -3,0.1 -2,-2 -3,-2 -5,5.5 -8,2.6 -4,-2.1 1,-5.6 -1,-7.7 1,-3.1 -1,-6.5 -4,-4.9 -3,-2.2 1,-4.2 3,-5.2 3,-0.9 6,-5 2,-7 -3,-1.5 1,-7.3 -4,-6.8 -1,-2.4 -2,-4.5 -3,-6.6 0,-3.1 -4,-4.1 -5,-1.2 0,2.5 -2,3.5 -4,1.1 -2,-2.4 3,-3.5 3,-6 0,-2.6 -3,-4.7 -6,-3.8 -3,0.9 -4,-3.2 -1,-4.6 0,-1.3 -1,-3.4 -3,-3.5 -3,0.8 -7,0.6 -9,-2.3 -1,-1 -2,0.5 -3,0.7 -2,-1.2 -5,-1.2 -8,-2.2 -3,-1.4 -5,1.1 -7,3.4 -4,0.5 -1,3.3 0,5.1 2,3.6 -4,1.6 -5,2.4 -3,-0.5 -6,2.2 -8,1.7 -2,-2 -5,-1.5 -7,-0.7 -3,0.6 -5,1.4 -8,0.1 -3,0.6 -1,4.6 -3,6.4 z m -22,143.1 c 1,-3.3 2,2.1 4,0.9 3,1.7 5,-3.7 4,-5.8 -3,1.3 -7,0.9 -8,1.4 0,1.2 -1,2.4 0,3.5 z" style="fill:#fefee4;stroke:none;display:inline" id="Dep_21" inkscape:connector-curvature="0" transform="matrix(0.9993,0.0348,-0.0348,0.9993,34,-34.3)" />
    <path sodipodi:nodetypes="ccccccccccccccccccccccccccccccccccccccccccccccccccccccccccccccccccccccccccccccccccccccc" d="m 1232,573.6 0,0.8 1,0.9 c -2,2.6 -3,5.8 -4,8.9 -3,0.5 -3,2.7 -1,3.3 5,1 4,6.4 7,8.2 0,4.3 4,1.7 6,3 1,2.7 1,6.7 5,6.2 1,1.5 7,1.9 5,3.8 -5,3.3 3,5.8 2,9.3 1,1.9 1,4.3 0,6.5 2,1.9 -2,4.8 0,6 5,1.9 -2,6.2 -2,9.3 2,2.6 1,4.1 0,6.2 2,5.9 -5,3.5 -8,2.2 -5,-3.3 -6,4.8 -11,5.3 -5,1.1 3,1.5 4,4.5 3,1.8 1,4.4 0,6.9 -1,-1 -2,0.5 -3,0.7 -2,-1.2 -5,-1.2 -8,-2.2 -3,-1.4 -5,1.1 -7,3.4 -4,0.5 -1,3.3 0,5.1 2,3.6 -4,1.6 -5,2.4 -3,-0.5 -6,2.2 -8,1.7 -2,-2 -5,-1.5 -7,-0.7 -3,0.6 -5,1.4 -8,0.1 -3,0.6 -1,4.6 -3,6.4 -2,0.4 -5,0.4 -6,-1.7 -4,-1.6 0,-5.8 -4,-6.8 -3,-0.4 0,2.9 -1,4.6 -2,3.5 -2,-1.3 -4,-1.9 -3,-0.1 -3,4.7 -6,5.1 -3,1.7 -2,-1.7 -4,-2.6 -3,-2 -2,3 -5,2.6 -3,1.2 -5,-4.5 -6,-0.7 -3,0.5 -6,-1.2 -9,0.5 -4,1.9 -1,-2.7 -1,-4.5 0,-2.4 1,-5.2 -1,-7.3 -3,-2.8 -2,3.7 -4,3 -4,-0.5 -4,-6.4 0,-4.7 1,-3.7 -5,-4.7 -5,-7.2 0,-2.8 -1,-5.3 -3,-7.1 1,-2.7 -1,-5 -3,-6.9 -1,-3.1 -3,0.8 -5,-1.8 1,-2 3,-4.7 0,-6.3 -3,-3.4 -1,4.3 -4,3.8 -2,-2.6 -1,2.2 -4,1.1 -1,-2.1 -2,-4.8 -3,-7.2 -1,-4.5 -5,1.9 -8,-0.6 0,-2.5 5,-3.6 5,-6.1 3,-2.6 -3,-1.8 -1,-3.7 2,-1.7 3,-4.9 0,-6.5 -4,-0.2 -1,-5.1 -4,-5.9 0,-2.4 -4,-1.6 -3,-3.6 -1,-2.6 -3,-4.1 -5,-6.2 -2,-1.3 -4,-2.3 -6,-1.7 -3,3.5 -6,-0.1 -5,-3.3 0,-2 2,-4.4 -1,-4.7 1,-1.3 0,-0.6 -1,-1.8 1,-2.3 1,-4.8 0,-7.3 -2,-1.9 0,-2.9 2,-3.6 4,0.4 2,-3.6 1,-5.7 -3,-2.1 1,-3 3,-1.8 2,0.5 7,-2.5 4,-5 -2,-3.2 3,-4.5 4,-6.3 -1,-3.8 5,-2.1 6,-4.7 0,2.3 3,3.6 3,5.7 2,1.8 3,3.2 5,2 2,2.3 -1,9.1 5,7.5 3,0.1 7,-0.4 10,0.5 3,1 6,1.6 9,3 6,-0.9 3,-7.1 4,-10.8 3,0.4 5,0.4 5,-3.8 2,-1.8 7,0.1 7,-4.2 0,-1.7 3,0 2,-2.8 0,-5 5,-3.8 8,-4.1 3,-1.4 1,-8.5 6,-6.1 2,1.8 4,2.1 6,-0.7 3,-3.6 8,2 11,-2 3,2.1 9,-2.7 9,3 2,4.1 0,8.5 1,12.3 -3,5 5,5.2 7,9.2 3,3.9 8,4.3 12,5.8 1,1.3 4,-2.5 5,0.9 2,4.6 4,-3.5 7,-2.4 2,0 7,-2 6,0.7 1,1.5 3,1.8 4,2.6 z" style="fill:#fefee4;stroke:none;display:inline" id="Dep_10" inkscape:connector-curvature="0" transform="matrix(0.9993,0.0348,-0.0348,0.9993,34,-34.3)" />
    <path sodipodi:nodetypes="ccccccccccccccccccccccccccccccccccccccccccccccccccccccccccccccccccccccccccccccccccccccccccccccccccccccccc" d="m 1316,378.6 c -2,0.3 -2,1.5 -3,2.7 1,4 -4,1.3 -5,3.4 -2,2.9 -3,5.4 -6,6.6 -1,2.9 -3,-0.1 -4,-1.5 -3,-3.1 -6,-2.2 -9,-1 -2,-1.2 -2,-6 -6,-4.7 -3,1.4 2,6.2 -2,6.5 -2,2 1,5.7 -2,7.6 -3,1.2 -2,3.5 0,5.2 0,2.9 3,3.3 2,5.7 -1,2.3 1,4.5 1,6.4 -4,0.5 -2,3.1 -1,5 0,4.6 -6,1.4 -6,5.7 -1,2.1 -4,4.5 -1,7.1 -3,2.7 3,3.7 2,5.5 0,3.8 -4,1.4 -6,3.3 -1,2.2 -4,3.3 -6,5.4 -1,-2.1 -5,-1.4 -3,-4.2 -3,-1.3 -7,0.7 -7,4.9 -1,2.8 -5,-1.4 -6,-2.5 -4,1.8 -8,0.9 -11,-0.5 -5,-3.3 -6,4.7 -11,2.8 -1,-2.8 -3,-6.2 -4,-8.9 -1,-3.6 -6,-0.9 -8,0.5 -4,-0.2 -10,3.1 -13,-1 -4,-0.3 -3,-7.8 -7,-5.2 -3,-1.7 -7,-1.3 -7,-6 -4,-0.1 -4,-5 -8,-6 -4,1.1 -4,-4.2 -8,-3.2 -4,-0.5 -9,0.7 -13,-0.6 0,-1.1 0,-2.1 0,-3 -3,-3.5 3,-3.7 1,-5.7 -2,-1.8 -1,-4.9 -1,-7.5 0,-3 7,-5.5 3,-8.3 -4,-1.1 0,-2.4 1,-4.4 -2,-1.8 -1,-4.6 -3,-5.8 -3,-1.6 -3,-4.1 -1,-6.4 1,-0.5 5,0.5 7,1.1 3,-1.3 2,-5.7 3,-8.5 2,0.2 2,-1.7 3,-2.9 3,0.3 3,-3.1 5,-4.9 3,-0.4 3,-3.4 4,-5.3 4,-3.3 -3,-3.1 -3,-5.5 2,-1.1 2,-3.2 2,-5.1 0,-2.5 1,-5.2 2,-7.1 2,-1.5 1,-4.7 2,-7 1,-3.8 -4,-2.2 -5,-5.5 0,-2.7 2,-5.2 3,-7.7 1,-0.4 3,-0.5 5,-0.7 1,0.2 3,-1.1 5,-0.1 2,0.3 2,3 4,2.5 2,-0.7 3,0.8 4,1 2,-0.8 4,0.7 6,1.3 2,1 4,-0.9 6,-1.1 2,-0.1 3,-1.5 4,-3 1,-1.6 3,-0.9 4,-2 2,-2.2 5,-2.3 7,-2.5 2,-1 5,-0.5 5,-2.5 1,-3.2 2,-6.5 2,-9.9 -1,-1.2 -1,-2.2 -1,-3.6 1,-2.7 3,-4.5 6,-5.6 2,-0.2 3,-1.8 3,-3.5 0,-2.1 3,-2.1 4,-3.3 1,-1 2,-2.9 3,-3.7 2,-0.7 1,0.4 2,2 0,2.1 1,0.6 3,0.6 1,0 3,-1.2 2,0.6 1,1 2,2.1 1,3.1 -2,0.7 -1,2.5 -1,3.9 -2,1 0,3 -1,3.3 -1,-1 -2,-2.6 -3,-0.7 0,1.7 0,3.9 -2,4.8 0,1.1 0,2.8 1,3.7 0,1.5 -1,2.5 -2,3.9 0,2.2 1,5.4 -1,6.7 -2,0.7 -2,2.5 -1,3.9 -1,1.9 1,2.3 2,3.1 1,1.3 3,-1.8 3,0.4 0,2.4 3,3.2 4,5.4 1,2.1 -1,4 -1,6 0,1.7 -3,2.5 -2,4.2 0,1.1 1,2.1 2,3.3 -1,1.4 1,2.8 0,4.1 0,1.5 -2,3 -1,4.5 1,-0.4 2,-1.1 3,-0.3 2,1.3 5,1.4 7,0.2 1,-1 2,-2.2 3,-1.2 1,-1 3,-1.1 3,0.3 1,2.3 3,4.6 5,4.4 1,1.5 3,1.4 4,1 2,-0.9 3,1.3 4,2.8 2,1.9 1,5 3,6.6 1,1.2 2,-1.6 3,-0.1 0,1.1 0,2.8 1,3.4 1,0.8 3,-0.4 4,0.2 1,1.5 4,1.7 5,-0.1 1,-1.5 3,-0.9 4,0.6 1,2.1 3,3.2 5,4.9 1,1.2 0,2.1 -1,2.9 -1,1.1 -2,2.2 -1,3.3 0,1.5 1,2.7 3,1.9 1,-0.3 1,-1.7 2,-2.7 1,0 2,1.4 4,1.6 0,0.1 1,0.5 2,0.7 z" style="fill:#fefee4;stroke:none;display:inline" id="Dep_08" inkscape:connector-curvature="0" transform="matrix(0.9993,0.0348,-0.0348,0.9993,34,-34.3)" />
    <path style="fill:none;stroke:#646464;stroke-width:1;stroke-linecap:round;stroke-miterlimit:4;stroke-dasharray:none;stroke-dashoffset:0;display:inline" d="m 1498,714.3 c 1,-0.3 4,-2.3 3,-1.7" id="path4997" inkscape:connector-curvature="0" />
    <path style="fill:none;stroke:#646464;stroke-width:1;stroke-linecap:round;stroke-miterlimit:4;stroke-dasharray:none;stroke-dashoffset:0;display:inline" d="m 1281,456.9 c 2,-2.1 5,-3.1 6,-5.2 3,-1.9 6,0.7 7,-3.1 1,-1.8 -5,-3 -2,-5.6 -3,-2.7 0,-5 1,-7 0,-4.3 6,-0.9 6,-5.5 -1,-2 -3,-4.6 1,-5 0,-1.9 -1,-4.2 0,-6.4 1,-2.4 -2,-2.9 -2,-5.8 -2,-1.8 -3,-4.1 0,-5.2 3,-1.8 0,-5.6 2,-7.5 4,-0.2 -1,-5.1 2,-6.4 5,-1.2 4,3.6 6,4.9 3,-1.1 6,-1.9 9,1.3 1,1.4 3,4.5 4,1.6 3,-1.1 4,-3.5 6,-6.4 1,-2 6,0.8 6,-3.2 1,-1.2 1,-2.4 3,-2.5" id="path4985" inkscape:connector-curvature="0" />
    <path style="fill:none;stroke:#646464;stroke-width:1;stroke-linecap:round;stroke-miterlimit:4;stroke-dasharray:none;stroke-dashoffset:0;display:inline" d="m 1281,456.9 c 3,-0.5 3,3.7 5,5.1 -1,2.7 -8,2.1 -5,6.3 2,3.3 2,7.4 4,10.5 0,3.6 1,7.4 1,11 -1,2 -4,4.2 -4,5.6 2,-1 6,-3.5 8,-0.3 0,2.4 0,6 -3,6 -4,2.4 4,0.5 3,4 0,2.2 -3,4.2 -4,5.4 -2,1.1 -5,1.3 -8,1.8 -1,2.4 -3,4.1 -2,7.1 -3,2.8 3,5.7 2,8.2 -3,1.6 -7,2.9 -6,6.5 -1,3.1 6,0.9 5,4.4 1,2.5 4,3.6 5,6 1,1.1 4,0.5 3,3.1 -1,1.7 2,3.8 -1,4.2 2,2.5 -1,1.7 -1,3.8" id="path4977" inkscape:connector-curvature="0" />
    <path style="fill:none;stroke:#646464;stroke-width:1;stroke-linecap:round;stroke-miterlimit:4;stroke-dasharray:none;stroke-dashoffset:0;display:inline" d="m 1530,585.5 c 2,2.3 5,-1.7 7,1.1 3,0.7 6,-0.1 6,-3 2,-1.3 5,-1.9 6,-4.8 2,-2.1 2,-5.1 3,-7.8 1,-3.1 3,-4.8 4,-7.4 -2,-0.1 -5,-1.6 -6,-4.7 -1,-2.4 2,-2.4 2,-4.9 2,-2.2 1,-5.7 3,-8 3,-1.8 0,-3.8 1,-6.3 -2,-1.8 -7,-1.5 -5,-4.3 1,-1.7 -2,0.8 -2,-1.4 -2,-0.6 -4,1.1 -5,-1.6 0,-2 -2,-3.6 -3,-1.7 -2,0.4 -4,-0.6 -3,2 1,3.1 -3,2.6 -2,5.6 -2,0.6 -4,1.7 -7,2 -1,-1.6 5,-4.1 1,-4.4 -4,0.9 -3,-4 -3,-5.8 2,-0.6 7,0.6 5,-2.7 -2,-1.3 -5,1.8 -6,-1.7 -3,-1.9 -6,-3.9 -9,-3.5 -2,-0.9 0,-4.4 -3,-5.8 -1,-2.1 0,-1.7 2,-0.5 3,-0.3 2,-6.4 6,-6 1,0.4 4,1.4 2,-1.5 0,-1.5 2,-1.5 1,-3.1 1,-2.4 2,-4.1 1,-6.7 1,-2.7 5,-4.2 2,-6.9 0,-2.4 2,-1.8 4,-2.6 2,0.4 2,2.4 0,3 2,3.2 3,6.6 4,9.6 4,-0.6 7,1.5 10,4.5 2,-1.9 5,-0.6 7,0.3 3,0.2 1,4.3 3,3.9 1,2.9 4,1.5 8,0.3 1,1.7 5,-1.1 7,-1.4 3,-1.6 6,0.2 8,2.6 1,0.9 3,0.9 5,2.4 2,-1.5 5,-4.2 5,-6.9 1,-3.5 3,-6.6 4,-10 1,-0.9 2,-2.7 2,-4.3" id="path4971" inkscape:connector-curvature="0" />
    <path style="fill:none;stroke:#646464;stroke-width:1;stroke-linecap:round;stroke-miterlimit:4;stroke-dasharray:none;stroke-dashoffset:0;display:inline" d="m 1283,555.6 c 3,-0.1 3,3.9 1,4.7 -1,2.2 2,4.4 -1,6.6 1,3.5 6,1.6 6,-1.3 3,-0.7 1,4.3 3,5.6 2,2.6 6,-1.2 6,2.9 1,2.5 3,4.1 6,4.1 3,1.5 4,6 7,5.9 3,0.6 6,3.6 8,3.5 3,-1.9 5,2.5 5,4.5 1,2.8 6,1.4 6,3.9 -1,3.5 3,4.9 5,6.5 0,1.6 2,0.1 3,1.4" id="path4955" inkscape:connector-curvature="0" />
    <path style="fill:none;stroke:#646464;stroke-width:1;stroke-linecap:round;stroke-miterlimit:4;stroke-dasharray:none;stroke-dashoffset:0;display:inline" d="m 1536,589.6 c -2,-1.8 -7,1.2 -7,-2.8 0,-0.5 1,-0.8 1,-1.3" id="path4949" inkscape:connector-curvature="0" />
    <path style="fill:none;stroke:#646464;stroke-width:1;stroke-linecap:round;stroke-miterlimit:4;stroke-dasharray:none;stroke-dashoffset:0;display:inline" d="m 1536,589.6 c 2,3.2 -3,1.8 -4,1.6 -1,3.6 5,2.7 3,6.1 -4,2.7 -2,5.4 -4,7.7 1,2.9 -2,5.4 2,7.3 2,2.6 -6,4.8 -2,6.6 3,1.1 6,5 9,1.7 3,-1 2,2.9 4,4 0,0.4 0,0.8 0,1.1" id="path4945" inkscape:connector-curvature="0" />
    <path style="fill:none;stroke:#646464;stroke-width:1;stroke-linecap:round;stroke-miterlimit:4;stroke-dasharray:none;stroke-dashoffset:0;display:inline" d="m 1338,603.9 c -3,0.4 -5,4.7 -8,5.1 0,2.8 7,0.9 4,4.1 -2,1.2 -2,5.7 0,6.5 3,-0.9 4,-5 8,-3.7 3,0.4 3,2.2 4,4.9 1,3.2 4,6 6,9.4 2,-2.3 4,-3.4 6,-0.4 3,1.3 2,3.8 1,6 1,3.5 7,1.1 8,4.8 1,1.5 5,5.8 1,5.2 -3,-0.3 -5,1.8 -5,4.6 1,3.3 -4,5.8 -3,8 3,2.6 -6,2.7 -3,6.6 2,2.9 3,-1.7 6,0.6 3,1.1 3,6.5 7,5.7 1,2.9 5,2 5,5 0,2.3 3,4.7 -1,6.6 -2,3.1 3,8 5,4.7 2,0.4 2,-5 4,-1.6 -1,3.6 3,4 4,7.3" id="path4933" inkscape:connector-curvature="0" />
    <path style="fill:none;stroke:#646464;stroke-width:1;stroke-linecap:round;stroke-miterlimit:4;stroke-dasharray:none;stroke-dashoffset:0;display:inline" d="m 1501,712.6 c 4,-1.1 8,-1.1 9,-3.8 3,-1.8 -1,-4 -1,-6.7 -2,-2.1 4,-2.8 3,-5.9 -4,-0.4 1,-3.7 -1,-5.5 -1,-3.2 2,-5 3,-7.8 0,-3 3,-1.3 4,-4 3,-1.6 5,-3.5 4,-6.7 1,-2.4 2,-5 4,-6.4 1,-2.6 4,-4.5 3,-7.3 -3,-1.3 0,-4.1 1,-6.6 1,-3.8 4,-5.7 5,-9.2 1,-2.9 1,-6.1 3,-8.8 3,-1.7 1,-6.6 5,-7.1 1,-0.3 1,-0.7 1,-1.1" id="path4931" inkscape:connector-curvature="0" />
    <path style="fill:none;stroke:#646464;stroke-width:1;stroke-linecap:round;stroke-miterlimit:4;stroke-dasharray:none;stroke-dashoffset:0;display:inline" d="m 1387,693.3 c 1,-1.3 2,-4.2 4,-4.3 -1,-2.6 2,-7.3 4,-3.9 1,2.3 -5,4.5 -2,6.4 4,0.1 3,-5 7,-3.6 3,-1.4 3,-6.5 6,-7.9 2,-3 6,-1.3 9,-2.7 3,-2.6 5,2.2 5,4.5 0,1.7 -1,3.3 -1,4.6 1,3.6 6,0.8 6,5 0,2.4 5,0.6 6,-0.6 2,-2.8 5,-2 8,-1.2 2,-0.7 5,-2.8 7,-1.7 3,-0.3 3,3.8 6,2.9 2,2.3 4,4.9 4,7.8 1,4 4,1.1 6,0.3 4,0.4 5,-3.2 6,-5.4 2,-2.2 5,-3.5 7,-0.5 2,1.2 2,4.4 4,5.9 3,1.5 6,3.3 9,5.6 2,2.4 7,1.7 8,5.2 -2,2.8 1,2.8 2,4.6" id="path4915" inkscape:connector-curvature="0" />
    <path style="fill:none;stroke:#646464;stroke-width:1;stroke-linecap:round;stroke-miterlimit:4;stroke-dasharray:none;stroke-dashoffset:0;display:inline" d="m 1196,688.3 c 2,-1.7 0,-5.8 3,-6.3 3,1.4 5,0.7 8,0.2 2,-0.7 5,-1.1 7,0.9 2,0.6 5,-2 8,-1.4 1,-0.7 7,1.5 5,-2.2 0,-1.8 -3,-4.7 1,-5.1 2,-2.2 4,-4.7 7,-3.2 3,1.1 6,1.3 8,2.5 1,-0.1 2,-1.6 3,-0.6" id="path4913" inkscape:connector-curvature="0" />
    <path style="fill:none;stroke:#646464;stroke-width:1;stroke-linecap:round;stroke-miterlimit:4;stroke-dasharray:none;stroke-dashoffset:0;display:inline" d="m 1246,673.1 c 2,3 6,3.3 9,2.6 2,0.2 3,2.3 3,3.6 -4,1.3 -3,5.5 0,4.7 3,-0.8 6,1.4 6,4 0,2.5 -5,3.4 -3,5.9 2,2.4 4,1.5 4,-1 1,-2.9 5,-1.7 5,1.4 1,2.1 2,4.2 3,6.7 5,-0.3 1,5.3 4,6.9 3,2.2 0,6.1 -3,6.9 -2,1 -6,2.8 -3,5.1 3,-1.5 5,2 4,5.1 2,2.1 -3,5.5 1,7.7 3,3 5,-4.4 8,-2.3 -1,2 1,2.5 2,2 -1,2.6 -1,5 2,5.4 2,0.9 6,4.8 8,1.2 1,-1 4,-5.7 5,-3.1 -1,2.4 -1,5.3 2,5.4 3,0.8 4,6.4 7,4.8 -1,1.7 -3,4.4 -1,6.6 3,3.3 4,-2.6 7,-3.5 2,-2.2 5,-0.9 5,2 2,0.9 2,-2 3,-1.9" id="path4911" inkscape:connector-curvature="0" />
    <path style="fill:none;stroke:#646464;stroke-width:1;stroke-linecap:round;stroke-miterlimit:4;stroke-dasharray:none;stroke-dashoffset:0;display:inline" d="m 1387,693.3 c 1,2.3 0,5.9 -3,3.6 -3,0.5 -3,4.7 -4,7.2 2,3.1 -4,3.8 -4,1.4 -4,-1.8 -7,1.5 -7,4.9 -1,4 -6,-1.8 -7,2.9 0,2.3 -3,7.2 1,7.3 3,0.2 2,5 0,5.4 0,2.6 -2,4 0,6.6 2,3.1 -2,3.4 -4,3.6 -2,1.9 -5,0.8 -7,1.3 -2,-1.7 -2,-8 -5,-4.6 -1,1.7 -2,4.9 -5,4.5 -2,-1.2 -5,-2.8 -6,-0.2 -3,1.8 -6,-1.8 -7,0.7 -2,2.8 -2,5.4 -4,7.2 -1,1.3 -1,2.8 -1,4.2" id="path4909" inkscape:connector-curvature="0" />
    <path style="fill:none;stroke:#646464;stroke-width:1;stroke-linecap:round;stroke-miterlimit:4;stroke-dasharray:none;stroke-dashoffset:0;display:inline" d="m 1501,712.6 c -1,2.7 1,6.2 4,7.3 3,0.9 6,1.7 9,2.9 1,2.1 4,3.2 7,4.1 2,1.5 4,3.8 3,6.1 1,3.3 2,6.3 0,9.7 -1,1.1 -3,1.7 -3,4 -1,2 0,7.1 2,7.3 2,-2.4 7,-2.3 8,1.1 1,2.1 3,4.5 3,6.4 3,1.1 5,4 4,6.7 0,0.5 -1,1.1 -1,1.5" id="path4905" inkscape:connector-curvature="0" />
    <path style="fill:none;stroke:#646464;stroke-width:1;stroke-linecap:round;stroke-miterlimit:4;stroke-dasharray:none;stroke-dashoffset:0;display:inline" d="m 1340,803.2 c -1,-2.2 -7,-1.3 -5,-4.2 4,-0.9 2,-4.2 2,-6.7 1,-2 2,-6 -2,-4.8 -2,2.8 -6,-0.7 -4,-3.4 -1,-2.1 -1,-4.3 0,-6.4 -2,-0.8 -3,-1.2 -3,-2.5 -2,0.6 -6,2.5 -4,-1.3 1,-0.8 5,-1.4 1,-2.4 -2,-2.1 4,-4.7 5,-2.2 3,0.2 3,-5.8 7,-6.3 3,-1.9 2,-5.5 1,-6.9 0,-2.7 0,-6.3 -3,-7.9 -2,-2.7 -6,-5.4 -6,-0.7 -1,1.9 -2,5.4 -5,1.8" id="path4897" inkscape:connector-curvature="0" />
    <path style="fill:none;stroke:#646464;stroke-width:1;stroke-linecap:round;stroke-miterlimit:4;stroke-dasharray:none;stroke-dashoffset:0;display:inline" d="m 1307,860.4 c 2,-2.5 4,-4.1 7,-5.7 1,-2.1 -7,-1.5 -3,-5.2 1,-2.8 4,-3.5 5,-5.7 3,-1.5 7,0.5 8,-3.2 2,-2.6 2,-5.6 4,-7.5 2,-1.4 3,-5 4,-7.7 0,-2.6 0,-4.9 3,-5.9 2,-3 1,-6.7 2,-10.1 -1,-1.7 0,-3.9 2,-2.8 1,-0.9 0,-2.7 1,-3.4" id="path4889" inkscape:connector-curvature="0" />
    <path style="fill:none;stroke:#646464;stroke-width:1;stroke-linecap:round;stroke-miterlimit:4;stroke-dasharray:none;stroke-dashoffset:0;display:inline" d="m 1392,412.5 c 0,4.1 4,1.9 5,3.5 1,3.6 0,6.4 -1,9.7 -5,1.9 2,5.8 0,9.4 0,2.2 4,2.9 5,5.3 -4,-1.7 -4,3.8 -1,4.3 1,3.6 6,-0.4 5,4.2 -3,4.4 4,8.3 2,11.8 -2,1.3 -3,4.1 -5,4.2 -3,4.7 7,4.4 5,8.1 -3,0.9 -6,3.3 -4,6.4 1,4.7 -5,2.5 -8,2.6 -3,1.3 1,5.8 1,7.3 1,3.4 5,6.1 8,5.7 1,3.4 6,4.9 4,8.8 -1,3.9 5,-0.4 5,4 1,1.1 4,-1.9 5,1.8 -1,2.8 1,5.6 3,2.9 3,1.7 7,-1 9,2.7 3,0.1 6,-2.5 7,1.4 4,-0.7 6,4.7 2,5.7 0,2.5 1,5.2 -2,6.8 0,3.7 6,1.2 6,3.7 -2,-0.2 -6,1.1 -2,1 1,0 4,2.9 4,2.4 -2,2.3 -1,5.6 1,5 3,2.9 9,-4.1 9,1.4 1,2.8 7,0.3 7,4.6 3,-0.2 6,-2.6 8,1.6 2,1.6 2,4.8 5,4.7 2,3.1 7,-0.1 7,4.8 -1,2.3 -1,4 2,1.7 2,0.3 5,3.7 8,1.6 1,4.4 5,5 8,4.2 2,1.9 3,6 6,3.9 3,1.1 5,-0.3 6,-1.7 1,2.5 2,5.9 6,4.2 2,-0.9 5,0.7 2,2.2 1,3.5 6,3.1 6,7.1 1,2.1 7,2.8 2,3.4 1,0.3 1,0.2 2,0.6" id="path4739" inkscape:connector-curvature="0" />
    <path style="fill:none;stroke:#646464;stroke-width:1;stroke-linecap:round;stroke-miterlimit:4;stroke-dasharray:none;stroke-dashoffset:0;display:inline" d="m 1176,423.3 c 4,1.4 9,0.4 13,1 4,-0.8 4,4.5 8,3.5 4,1.2 4,6 8,6.3 0,4.7 4,4.4 7,6.2 4,-2.4 3,5 7,5.5 2,4.2 9,1.1 13,1.4 2,-1.3 7,-3.8 8,-0.2 0,2.7 2,6.2 3,9 5,2.1 6,-5.9 11,-2.4 3,1.5 7,2.6 11,0.9 1,1.1 5,5.5 6,2.7 0,-4.2 4,-6.1 7,-4.6 -2,2.7 2,2.1 3,4.3" id="path4735" inkscape:connector-curvature="0" />
    <path style="fill:none;stroke:#646464;stroke-width:1;stroke-linecap:round;stroke-miterlimit:4;stroke-dasharray:none;stroke-dashoffset:0;display:inline" d="m 1114,560.9 c -1,2.3 2,3.7 2,5.8 2,1.8 3,3.3 5,2.1 2,2.4 -1,9.1 5,7.7 3,0.2 7,-0.1 10,0.9 3,1.1 6,1.8 9,3.3 6,-0.7 3,-7 4,-10.7 3,0.5 5,0.6 5,-3.6 2,-1.7 7,0.3 8,-4 0,-1.7 3,0.1 2,-2.7 0,-5 5,-3.6 8,-3.8 3,-1.3 1,-8.5 6,-5.9 2,1.9 4,2.2 6,-0.5 3,-3.5 8,2.3 11,-1.6 3,2.2 9,-2.4 9,3.3 2,4.2 0,8.5 1,12.3 -4,4.9 4,5.4 6,9.5 3,4 8,4.5 12,6.2 1,1.3 4,-2.4 5,1.1 2,4.6 4,-3.4 7,-2.2 2,0.1 7,-1.7 6,0.9 1,1.5 3,1.9 4,2.8" id="path4695" inkscape:connector-curvature="0" />
    <path style="fill:none;stroke:#646464;stroke-width:1;stroke-linecap:round;stroke-miterlimit:4;stroke-dasharray:none;stroke-dashoffset:0;display:inline" d="m 1245,581.8 c 3,-1.8 7,-1.8 10,-0.4 3,0.5 7,2.4 4,-1.1 -1,-2.5 1,-4.4 -2,-5.3 -2,-3 0,-4.8 3,-4.7 2,-2.8 8,-1 7,-5.3 0,-4.6 -6,-5.3 -9,-4.3 -1,-3.1 4,-6.2 7,-3.7 4,4.3 7,-4.7 11,-0.8 1,1.9 3,-2.7 5,-1.1 l 1,0.2 1,0.3" id="path4693" inkscape:connector-curvature="0" />
    <path style="fill:none;stroke:#646464;stroke-width:1;stroke-linecap:round;stroke-miterlimit:4;stroke-dasharray:none;stroke-dashoffset:0;display:inline" d="m 1536,589.6 c -4,-0.3 -7,2.5 -11,3.7 -3,2.1 -7,1.8 -10,5 -3,2.9 -5,6.5 -9,8.2 -2,0.4 -2,-5.3 -4,-1.6 -2,1.5 -2,3.3 -4,4.9 -5,1.6 -9,-4.9 -14,-3.1 -1,0.4 -3,-2.5 -6,-2 -2,-2.5 2,-10 -5,-7.3 -3,1.2 -5,5 -3,8.1 1,3.4 -5,-3.3 -7,-0.7 -2,4.5 -9,-0.1 -12,4 -1,2.5 -5,2.5 -4,-0.7 -3,-0.9 -7,2.2 -9,-1.7 0,-5 -6,-1.7 -6,1.3 -2,1.9 -7,1.8 -9,1.4 1,-2.9 -7,-1.6 -4,1.6 1,3.7 -2,4.2 -4,6.2 -3,1 -1,-7.1 -5,-3.7 2,3.1 -1,3.1 -3,2.1 -3,1 -6,0.8 -9,2.4 -3,-1.4 -2,-5.1 -3,-8.2 -2,0.3 -7,-2.5 -3,-5 3,-2.7 -5,-3.6 -2,0.5 0,5 -9,2.1 -4,-1.1 3,-1.9 2,-4.6 2,-7.2 4,-3.1 3,-6 -1,-6.2 -4,-3.2 -10,5.3 -12,1.3 l 0,-0.5" id="path4689" inkscape:connector-curvature="0" />
    <path style="fill:none;stroke:#646464;stroke-width:1;stroke-linecap:round;stroke-miterlimit:4;stroke-dasharray:none;stroke-dashoffset:0;display:inline" d="m 1246,673.1 c 1,-2.4 3,-5 0,-6.9 -1,-3 -9,-3.7 -4,-4.6 5,-0.3 6,-8.4 11,-4.9 3,1.4 10,4 8,-1.9 1,-2.1 2,-3.6 1,-6.2 0,-3.1 7,-7.2 2,-9.3 -2,-1.2 2,-4 0,-6 1,-2.1 1,-4.5 0,-6.4 1,-3.5 -6,-6.3 -1,-9.4 2,-1.8 -4,-2.4 -5,-4 -4,0.4 -4,-3.6 -5,-6.4 -2,-1.3 -6,1.1 -6,-3.2 -3,-1.9 -2,-7.2 -7,-8.4 -2,-0.7 -1,-2.9 2,-3.3 1,-3 2,-6.2 4,-8.7 l -1,-0.9 0,-0.8" id="path4687" inkscape:connector-curvature="0" />
    <path style="fill:none;stroke:#646464;stroke-width:1;stroke-linecap:round;stroke-miterlimit:4;stroke-dasharray:none;stroke-dashoffset:0;display:inline" d="m 1338,603.9 c 2,0.9 6,3.5 5,-0.5 2,-2.3 6,-2.7 8,-1.6 1,-2.7 4,-0.8 5,-0.2 0,-3.4 5,-2.7 3,-6.3 4,-1.2 6,3.1 9,1.8 3,-0.5 3,-4.8 7,-5.8" id="path4685" inkscape:connector-curvature="0" />
    <path style="fill:none;stroke:#646464;stroke-width:1;stroke-linecap:round;stroke-miterlimit:4;stroke-dasharray:none;stroke-dashoffset:0;display:inline" d="m 1544,625.7 c 4,0.2 6,1.1 9,1.6 2,1.7 3,3.3 2,5.3 2,1 7,-0.7 3,1.6 -1,5 6,1.6 8,4.7 4,3.3 10,2.9 12,7.8 -2,3.4 0,7.8 4,6.9 2,1.6 -2,6.1 2,5.4 2,0.2 3,0.2 5,0.3" id="path4683" inkscape:connector-curvature="0" />
    <path style="fill:none;stroke:#646464;stroke-width:1;stroke-linecap:round;stroke-miterlimit:4;stroke-dasharray:none;stroke-dashoffset:0;display:inline" d="m 1497,759 c 4,-3.3 -6,-7.7 -3,-11.4 4,-3 -3,-5.6 0,-9.5 0,-4.8 -5,-9.5 -2,-14.4 1,-2.9 4,-4.8 5,-7.4 1,-0.6 2,-1.2 1,-2" id="path4667" inkscape:connector-curvature="0" />
    <path style="fill:none;stroke:#646464;stroke-width:1;stroke-linecap:round;stroke-miterlimit:4;stroke-dasharray:none;stroke-dashoffset:0;display:inline" d="m 1362,810.6 c 3,-1.5 6,1.7 7,-1.4 3,-2.6 7,-3.7 11,-4.8 1,-2.4 4,-3.7 7,-2.2 -2,-2.2 1,-4 3,-2.2 -1,-6.5 6,0.6 7,-0.5 1,-2.6 5,1.2 6,-2 3,-2 7,-0.8 7,-4.5 1,-2.6 3,3.7 3,-0.3 -2,-3.2 1,-5.6 4,-2.9 2,-0.6 7,-2.8 3,-4.8 3,1.2 3,-4.9 6,-1.3 2,2.5 3,0.8 1,-1.2 3,1.5 4,-1.5 4,-2.8 5,0.2 2,-7.3 5,-7.9 2,0.7 3,-4.2 6,-3.5 3,-2.1 4,2.2 6,-1.2 3,-1.8 10,0 7,4.7 2,-1.7 6,-4.9 6,-1.4 2,-1.3 3,-1 4,0.8 5,0 6,-4.9 5,-7.5 2,-3.8 6,4.2 9,-0.3 1,-2 2,-3.8 0,-5.9 2,-3.1 6,5.6 9,2.3 2,1.1 6,6.5 8,2.2 1,-0.9 0,-2.9 1,-3" id="path4657" inkscape:connector-curvature="0" />
    <path style="fill:none;stroke:#646464;stroke-width:1;stroke-linecap:round;stroke-miterlimit:4;stroke-dasharray:none;stroke-dashoffset:0;display:inline" d="m 1497,759 c 2,5.7 8,1.1 11,2.2 3,1.7 1,6.2 6,6.1 1,1.2 0,8.4 -3,3.8 -1,-2.5 -3,4.7 -1,5.5 2,1.8 2,4.1 3,5.9" id="path4655" inkscape:connector-curvature="0" />
    <path style="fill:none;stroke:#646464;stroke-width:1;stroke-linecap:round;stroke-miterlimit:4;stroke-dasharray:none;stroke-dashoffset:0;display:inline" d="m 1340,803.2 c 3,3.4 6,5.7 8,9 3,-2 7,2.1 10,-1.9 1,-1.4 4,-1.9 4,0.3" id="path4645" inkscape:connector-curvature="0" />
    <path style="fill:none;stroke:#646464;stroke-width:1;stroke-linecap:round;stroke-miterlimit:4;stroke-dasharray:none;stroke-dashoffset:0;display:inline" d="m 1362,810.6 c 4,3.2 2,8.7 5,11.2 2,0.5 6,2.4 4,5.1 4,-0.2 4,4.2 5,7 -1,3.1 -4,6.1 -6,8.3 2,2.6 3,8.6 -2,6.7 -3,-1.9 1,3.8 -1,5.6 3,2.9 8,-1.4 8,-4.6 3,0 -1,7.2 3,5.6 1,3.1 5,0.5 6,2.9 3,1.9 6,-5.2 4,-0.2 -2,5.6 6,0.8 7,5.6 1,2.4 -4,3.7 0,5 3,0.8 3,2 1,4 -1,3.9 5,3.5 3,7.8 0,1.9 5,-0.4 1,2.9 1,5.3 8,-2.1 8,2.7 4,1.6 7,4.6 10,8.1 2,1.7 6,5.8 3,7.2 -1,4 -5,5.2 -8,7.5 -2,2.7 -10,4.4 -5,8.8 3,2.6 1,5.3 -2,6.5 -1,2.5 -1,5.1 2,7 3,1.4 5,7.2 8,5.3 l 0,-0.4" id="path4643" inkscape:connector-curvature="0" />
    <path style="fill:none;stroke:#646464;stroke-width:1;stroke-linecap:round;stroke-miterlimit:4;stroke-dasharray:none;stroke-dashoffset:0;display:inline" d="m 1375,591.3 c -1,-3 -1,-6.3 0,-8 -2,-2.2 -8,-2.6 -7,-7.9 1,-1.9 4,-3.2 7,-4.1 3,2.5 6,-5.6 1,-2.8 -4,1.6 -3,-4.4 -3,-6.7 -1,-3.8 3,-8.1 -2,-10.7 -2,-1.8 -3,-5.2 0,-6.3 -1,-3.3 3,-4.8 5,-7.1 -4,-0.2 3,-3.9 1,-6.9 0,-3.1 -3,-7 1,-8.1 0,-2.5 -7,-6.1 -3,-7.6 3,-0.2 3,-5.5 7,-3.6 5,-0.3 3,-6.6 -1,-6.8 -1,-1.7 1,-3.9 1,-6.1 1,-3.1 6,-4.5 2,-7.7 -1,-1.6 -5,0.1 -4,-3.3 4,-3.2 1,-8.6 -4,-5.6 -4,-0.6 -1,-4.5 1,-5.9 -4,-2.4 -1,-7 -1,-10 -2,-0.7 -5,1.4 -5,-2.8 1,-2.4 3,-3.1 1,-5.8 -3,-4.4 2,-5 5,-7.5 1,-3.3 -1,-5.3 -4,-4.6 -4,-2.8 4,-7.4 -2,-9 -1,-1.9 -1,-4.4 -4,-6.1 1,-3.8 -4,-6.3 -7,-7 -2,4.8 -7,0.6 -10,4.2 -3,0.2 -6,0.4 -6,3.9 -2,1.9 -1,-2.8 -4,-2.1 -1,-3.1 8,0.9 5,-4.3 -3,0.7 -3,-1.3 -1,-3.7 -2,-1.5 -2,-6.4 0,-7.7 0,-1 0,-2 0,-2.9" id="Dep_Reg_bound" inkscape:connector-curvature="0" />
  </g>
  <g style="display:inline" inkscape:label="International boundaries" id="International boundaries" inkscape:groupmode="layer" transform="translate(-1234,-361.10001)">
    <path style="fill:none;stroke:#000000;stroke-width:1.5;stroke-linecap:round;stroke-miterlimit:4;stroke-dasharray:none;stroke-dashoffset:0" d="m 1591,755.1 c 3,-0.2 4,-2 6,-3 1,-0.9 2,0.7 3,-0.6 1,-1.2 3,0.3 1,1.1 -1,0.9 1,2.3 0,3.5 -1,1.9 -3,1 -5,1.3 -1,0 -1,2 0,1.9 2,0.4 2,1.9 3,1.7 2,0.3 2,2 4,1.5 1,0 2,-0.3 3,-0.9 4,-0.5 7,-0.3 10,-2.5 1,-1.6 2,-3.5 3,-4.7 1,-0.2 3,0.6 4,-0.2 2,-0.7 5,-0.6 6,1.7 2,1.5 0,3.5 2,4.4 2,0.6 3,-0.1 5,-0.7 4,-0.8 7,1 11,-0.4 1,-0.8 3,-0.9 4,-0.4 2,0.2 3,-1.7 3,-3.1 1,-1.6 3,-1.1 4,-2.9 0,-1.4 3,-0.2 3,-2.1 1,-1.3 2,-3.3 4,-3 1,0 2,2.2 3,1 2,-1.8 4,1.1 6,0.5 1,-0.6 2,0.8 2,2.1 1,1.8 3,3 4,4.1 2,1 4,0.2 6,0.4" id="path5071" inkscape:connector-curvature="0" sodipodi:nodetypes="ccccccccccccccccccccccccccc" />
    <path style="fill:none;stroke:#000000;stroke-width:1.5;stroke-linecap:round;stroke-miterlimit:4;stroke-dasharray:none;stroke-dashoffset:0" d="m 1447,420.2 c 0,-2.7 0,-5.4 -1,-8 0,-2 -1,-4.4 1,-5.9 1,-1.4 2,-3.4 0,-4.6 -1,-0.4 -1,-2.8 0,-2.3 2,-0.7 0,-2.1 1,-3.2 2,-1 3,-1.4 4,-2.7 1,-1.5 2,-4 3,-5.7 1,-1.2 0,-2.7 -1,-3.1 -1,-1.2 1,-2 2,-2.4 1,-1.2 1,-3.1 3,-3.7 2,-0.1 2,-1.4 3,-2.3 2,0.1 1,-1.5 0,-2 0,-2.6 2,0.6 2,-0.6 0,-1.3 -2,-1.9 -2,-3.4 0,-1.5 1,-2.4 2,-3.1 2,-1 1,-2.2 1,-3.5 0,-1.1 -1,-2.4 1,-2.9 0,-0.8 1,-2.2 0,-3.2 -1,1.2 -1,1.9 -3,0.3 -1,0.2 -2,-0.6 -3,-1.8 -1,-0.8 -2,1.9 -3,1.8 -2,0.5 -3,-1.6 -4,-1.3 -2,0 -3,-1.3 -3,-2.6 -1,-1.9 -3,-3.9 -5,-2.9 -1,1.3 -3,1.5 -2,-0.4 -1,-1.2 -2,-2 -2,-3.3 -2,-0.4 -2,0.4 -3,-1.2 -2,-0.7 -4,-1.2 -4,-3.3 -2,-0.7 -3,-2.1 -3,-3.5 1,-1.2 0,-2.1 1,-3.4 -1,-1.3 -1,-2.8 -2,-3.6 -1,0.4 -3,-0.4 -2,-2.1 0,-2 -2,-0.7 -1,0.8 0,2 -2,1.1 -2,-0.5 0,-1.3 -2,-2.6 -1,-3.9 0,-1.4 -3,-1.6 -2,-3.5 0,-1.5 -3,-2.3 -1,-3.3 1,-0.8 -2,-2.1 -1,-3.3 1,-1.4 -1,-2.1 -1,-3.3 -2,0.4 0,-1.7 0,-2.2 0,-0.9 -1,-0.4 -1,-2.2 2,-1.6 4,-1.7 3,-2.9 0,-1.2 1,-2.1 0,-3.5 1,-0.6 1,-1.2 1,-1.9" id="path5065" inkscape:connector-curvature="0" />
    <path style="fill:none;stroke:#000000;stroke-width:1.5;stroke-linecap:round;stroke-miterlimit:4;stroke-dasharray:none;stroke-dashoffset:0" d="m 1422,300.6 c -1,-0.6 -3,-1.4 -2,-2.9 0,-1.7 0,-4.5 -3,-4.7 -1,-0.8 -1,0.8 -2,1.7 0,1.6 -2,1.7 -3,0.6 -1,-0.3 -3,-0.5 -2,-2 -1,-1 0,-3 -2,-2.6 -1,0 -2,1.9 -3,1.6 -2,-0.3 -3,1.9 -3,3.6 0,1.4 -1,2.3 0,3.8 -1,1.1 -3,1.1 -4,2 -2,0.9 -5,2 -4,4.8 -2,1.2 -2,3.2 -4,3.8 -1,0.4 -2,2.2 -1,3.6 1,1.3 -1,2.3 0,3.6 -1,2.2 -4,2.1 -4,4.3 0,1.1 0,2.8 1,3 1,1.8 -1,3 -2,3.6 0,1.6 -1,2 -2,1.1 -1,1 -3,0.8 -3,2.5 0,1.2 1,2.6 0,3.5 -2,0.7 -2,3 -3,3.9 -1,0.8 -3,2.2 -1,3.4 1,0.8 3,0.5 4,2.2 1,1.5 -1,2.1 -2,1.3 -2,-0.2 1,2.2 -1,2.6 1,0.9 1,1.1 0,2.2 -2,0.7 0,1.9 0,3 0,1.8 1,3.5 1,5.4 0,1.1 2,0.8 3,-0.3 2,-0.2 1,2.4 2,3.4 0,1.3 1,2.4 0,4 2,1.3 2,3.5 2,5.2 0,1.4 2,1.9 3,0.8 1,-1.2 3,0.5 3,1.7 1,1.3 -1,2.2 -1,3.5 -1,0.9 -2,3 0,3.6 1,0.6 4,0.4 4,2.3 0,1.7 1,4.1 -1,5 -1,0.1 -3,1.4 -2,2.8 0,1.2 -1,3.1 -2,3.4 -2,0 -2,2.2 0,1.5 2,0.2 0,1.8 1,2.8 -1,1 -2,1.7 -3,2.9 0,2 -2,1.3 -4,1.9" id="path5063" inkscape:connector-curvature="0" sodipodi:nodetypes="ccccccccsccccccscccscccccccsscccsccccsccccccc" />
    <path style="fill:none;stroke:#000000;stroke-width:1.5;stroke-linecap:round;stroke-miterlimit:4;stroke-dasharray:none;stroke-dashoffset:0" d="m 1416,936 c -1,-1.3 -2,-2.2 -3,-3.7 0,-2.2 3,-2.7 4,-4.3 2,-1.3 4,-3.5 6,-4.9 2,-2.7 5,-4.5 7,-7.5 2,-2.6 6,-3.5 9,-4.7 2,-0.5 3,-1.3 4,-2.8 0,-1.7 3,-1 2,-2.8 0,-2 3,-1.3 4,-2.2 2,-0.3 2,-2.5 3,-3.4 1,-0.7 2,-2.5 1,-3.3 -2,-1 -3,-2 -3,-3.7 2,-1.7 1,-3.8 2,-5.5 1,-1.1 2,-2.7 2,-4.4 2,-3.8 0,-7.3 -2,-10.4 -1,-1.4 1,-1.9 1,-3.1 2,-1.6 3,-3.3 5,-4.7 1,-0.4 2,0.6 3,-0.2 3,-0.9 6,-1.3 8,-3 3,-1 6,-0.7 7,-3 1,-2.2 4,-5.2 7,-5.5 2,0 3,-2.9 1,-4.3 -1,-1.1 -1,-1.7 0,-2.5 0,-1.3 0,-2.6 1,-3.3 1,-0.6 3,0 4,-1.1 1,-1.1 -1,-2.8 0,-3.6 4,-0.9 7,-2.8 10,-5.9 0,-1.1 3,-1 2,-2.3 -2,-0.2 -2,-2 0,-2.3 3,-0.7 4,-2.5 5,-3.6 2,-1.4 3,-3.4 5,-4.2 1,-1 2,-1 3,-2.2 -1,-1.3 2,-1.7 1,-2.9 -1,-1.6 0,-3.4 -1,-5 -1,-1.1 -1,-3.1 1,-2.4 2,0.6 2,-0.8 3,-1.3 1,-0.5 3,-0.1 4,-1.9 0,-1.1 -1,-2.7 1,-2.8 2,0.3 3,-0.9 5,-2.7 1,-1.8 -3,-1.3 -1,-2.8 0,-2 -2,-0.6 -3,-1.8 -1,-1.4 -2,-0.8 -3,0.1 -2,1.2 -5,1 -8,1 -2,0.8 -4,-0.5 -6,0.4 -2,1 -1,-1.5 -1,-2.6 0,-1.9 3,-1.2 3,-3.1 1,-1.1 1,-2.8 3,-2.4 2,0 1,-2.3 1,-3.6 -1,-1.5 0,-2.5 2,-1.7 2,0.4 2,-2.9 4,-2.2 2,0 2,-3.4 0,-4.7 -1,-1 -1,-2.8 -1,-4 1,-1.2 2,-0.4 4,-1.2 2,-1.3 3,-1.1 4,-0.1 0,0.7 2,0.9 2,1.7 2,0.2 5,-0.9 6,-1.4 3,-1.4 4,0.5 6,1.2 0,0.7 2,-1 4,-0.2 -1,1.8 -3,2.9 -3,4.9 1,1.3 0,2.9 0,4 2,0.6 3,1 5,1.2 1,-0.6 3,0.2 3,1.9 0,1.9 2,1 2,0.2 1,-0.7 2,-1.6 4,-1.1 1,0 2,-2 3,-1.1 1,0.6 3,-0.7 4,0.5 1,0.7 3,0.3 4,0.5 1,-0.7 2,-1.6 3,-1.9 2,-1 2,-3.4 4,-3.4 1,-0.7 2,-2.8 0,-3.3 -1,-0.2 -2,-1.5 -1,-2.7 2,-1.3 3,0 4,1 1,1.4 3,0 4,-1 2,-1.1 2,-2.5 1,-3.5 -2,-1.8 1,-1.6 2,-1.1 2,-0.5 1,-4.3 -1,-3.6 -1,0.7 -2,-1.2 0,-1.7 1,-1.6 3,-1.7 5,-2.7 0,-0.9 -1,-2.6 1,-2.8 1,-0.7 3,0.1 3,-0.9 1,-1.9 0,-3.9 -2,-5.4 -1,-1.3 0,-3.8 -2,-4.6 -1,-1.2 -3,-2.4 -3,-3.5 -1,-1.2 -1,-3.3 -2,-4.9 0,-1.5 -1,-3.4 1,-4.2 1,-1.3 3,-2.9 3,-4.9 -1,-3.3 -4,-6.3 -3,-9.8 2,-2.4 3,-5.2 5,-7.1 1,-1.4 0,-3.7 0,-5.2 -1,-1.4 -1,-3.2 0,-3.6 2,-1 3,-2.1 2,-4 0,-2 -1,-4.4 1,-5.8 3,-2.2 4,-5.8 4,-9.3 -1,-2.9 -4,-4.6 -5,-6.8 -2,-1.3 -1,-3.4 -2,-5.3 0,-2.3 -1,-4.7 0,-7 0,-2.1 1,-4.6 3,-5.8 3,-1.7 1,-4.8 3,-6.8 1,-1.7 2,-3.3 3,-5.2 0,-2.2 1,-4.2 3,-5.5 3,-2.5 3,-6.3 3,-9.8 -1,-2.1 0,-4.7 3,-5.6 1,-1.3 4,-2.1 4,-4.9 -1,-2.3 -1,-4.6 -2,-6.9 -1,-2.9 0,-5.7 0,-8.5 2,-1.6 3,-3.1 3,-4.7 3,-2.2 1,-5 2,-7.1 1,-1.3 4,-1.4 4,-3.6 0,-2.3 -1,-4.6 -1,-6.9 0,-2.8 -2,-5.9 0,-8.5 1,-2.3 2,-5 3,-7.3 2,-2.4 5,-2.9 7,-5.3 1,-1.6 3,-3.2 4,-4.5 2,-2.2 5,-5 3,-8.4 0,-1.4 2,-2.6 4,-2.3 1,-0.1 3,1.1 4,-0.8 1,-1.4 0,-3.8 2,-4.5 2,-1.1 5,-0.5 6,-2.4 2,-1.4 3,-4 3,-6.4 0,-3.6 1,-6.7 2,-10 1,-2.5 3,-4.3 4,-6.6 1,-1.6 2,-3.4 3,-4.8 1,-1 3,-1.3 4,-1.9 0,-1.8 -2,-1.7 -3,-0.9 -2,0.7 -3,-1.4 -4,-1 -2,-0.3 -4,-0.1 -5,-1.2 -3,-1.5 -6,-0.1 -8,-2.6 -2,-2.5 -5,-3.3 -8,-4.6 -1,-0.4 -3,0.1 -4,-1.8 -1,-0.7 -2,-1.3 -2,-2.3 -2,-1.1 -3,0.8 -4,1.7 -1,0 -3,-1.6 -4,-0.4 -1,1.2 -2,1 -4,0.1 -2,-0.5 -4,-1.6 -5,-3.1 -1,-0.1 -2,1.4 -3,1.7 -1,1.4 -3,0.5 -4,1.1 -1,-1.1 -2,-1.9 -3,-1 -2,-0.8 -3,-0.4 -4,0.7 -1,0.7 -4,0 -5,-1.1 -1,-1.2 -1,-3 -2,-3.8 -2,-0.6 -3,-2.3 -4,-1.3 -3,1.2 -6,-1.1 -6,-3.8 0,-1.3 0,-3.3 -2,-3.6 -1,-1.1 -1,-2.7 -3,-2.6 0,-1.3 3,-1.5 2,-2.9 -2,-0.3 -1,-2.8 -3,-2.3 -1,-0.1 -2,1.2 -4,0.2 -2,0.4 0,-1.3 -1,-2.1 -3,-0.7 -5,0.4 -7,0.6 -1,0.6 0,2.4 -1,3.3 0,1.4 0,2.8 -2,2.2 -3,-0.3 -5,1.6 -6,4.1 -1,2.2 -1,0.5 -2,0 -2,1 -3,-2.5 -5,-1.1 -1,0.7 -3,0.6 -4,1.2 -2,2.1 -1,-1 -2,-1.4 -2,-0.9 -3,0.6 -4,0.8 -1,-0.5 -2,-3.3 -4,-2.7 -2,0.7 0,-2.6 -2,-2.4 -1,0.1 -2,0.8 -1,2.2 0,1.2 0,2.7 -2,2.5 0,1.3 -1,2.5 -2,2 -3,0.8 -2,-1.6 -2,-2.7 -1,-1.7 -1,-3.3 -1,-4.7 -2,-2 -1,-4.2 -1,-6.2 -1,0.5 -2,0.2 -3,-0.5 -1,-0.6 -2,-2.3 -4,-1.9 -2,0.6 -3,-2.9 -5,-3.3 -2,-0.4 -3,2.6 -5,1.9 -1,-0.7 -3,-2.5 -4,-1 -1,0.9 -1,2.4 0,3 0,1.4 1,2.5 2,3.5 0,1.5 -2,1.6 -2,3.2 0,2 -3,1.4 -4,0.6 -2,-0.2 -3,-0.8 -4,-1.6 -1,0.3 -2,0.8 -3,0.1 -1,0.2 -3,0.3 -3,-1.2 -1,-1.3 -2,-2.8 -1,-3.9 2,-0.8 2,-4.1 0,-4.8 -1,0.2 -2,1.7 -3,0.9 -1,-1.2 0,-2.4 -1,-3.5 0,-1.7 -1,-3.6 -3,-3.4 -1,-0.4 -1,-2.4 -1,-3.5 1,-1.2 -1,-1.6 -1,-3 -2,-1.9 -5,-3 -6,-5.3 0,-1.6 0,-2.3 -2,-2.5 -1,-1 -2,-3.1 0,-4.2 1,1.2 3,0.8 2,-0.9 -1,-0.6 -1,-1.6 -1,-3 -1,-1.5 -3,-0.9 -4,-2.1 -1,-0.9 -3,-2.1 -2,-3.7 2,-0.6 0,-3 -1,-3.6 -2,-0.1 0,-1.5 -1,-2.3 -1,-0.5 -2,-0.6 -3,-1.7 -1,-1.3 -2,-1.7 -3,-1.1 -2,-0.8 -3,-2.7 -5,-2.8 -1,0.9 -1,2.6 -3,2.1 -1,-0.3 -2,1 -3,0.5 -2,-0.8 -3,-0.8 -4,-2.1 -2,-0.5 -3,-0.4 -3,-2 -2,0 -1,-2.1 -3,-1.9 -2,-1.1 -4,-3.4 -6,-2.4 -3,0.3 -5,0.7 -7,0.4 -2,-0.1 0,1.4 -1,2.1 -1,-0.3 -2,0.7 -3,0.4 -1,0.4 0,2.2 -1,3.1 0,1.4 -3,-0.3 -2,1.8 0,1.3 -2,2.3 -3,0.9 0,-1.6 -2,-1.4 -3,-0.6 0,0.9 -1,2.9 -2,2.1 -1,-1.2 -3,-0.2 -4,-1.1 -1,0.3 -4,1.8 -2,-0.2 -2,-1.1 -1,-3.5 -2,-5.2 -1,-1.3 -2,-1.9 -4,-2.4 -1,-0.1 -3,-0.4 -4,-0.4 -2,-0.2 -3,-0.3 -4,0 -2,-0.4 -1,-2.4 -3,-2.7 -2,-1.2 1,-2.4 -1,-3.6 0,-1.6 -2,0.6 -2,-1.2 0,-1.7 -2,-0.6 -3,-1.4 -1,-0.8 -2,-2.4 -3,-1.4 -2,0.2 -1,2.4 -2,3.2 -1,1 -3,-1.2 -4,0 -1,0.7 -1,-2 -2,-2 -2,-1.1 -6,-1.2 -7,1.3 -1,1.5 0,3.8 -2,5 -1,-0.5 -2,-2.9 -3,-2.9 -2,-0.2 -4,-1.5 -5,0.1 -1,0.9 -1,2.9 -2,2.6 -2,0.9 -4,-0.2 -6,1 -1,0.3 -1,-1.8 -1,-2.7 0,-1.3 1,-2.8 0,-4.2 -1,-1.2 -2,-2.3 -1,-3.7 0,-1.3 -2,-1.7 -2,-2.8 -1,-1.7 1,-3.8 -1,-4.8 -2,-1.4 -3,-2.9 -5,-3.3 -2,-0.3 -3,-1.7 -4,-1.7 -1,1 -1,2.4 -2,2.6 -2,0.7 -3,-0.5 -3,-2 -1,-1.1 0,-2.2 1,-3.2 1,-0.8 2,-1.7 1,-2.9 -2,-1.8 -4,-2.9 -5,-5.1 -1,-1.5 -3,-2.2 -4,-0.7 -1,1.8 -4,1.5 -5,-0.1 -1,-0.6 -3,0.5 -4,-0.3 -1,-0.7 -1,-2.4 -1,-3.5 -1,-1.5 -2,1.3 -3,0 -2,-1.6 -1,-4.7 -3,-6.7 0,-1.5 -1,-3.7 -3,-2.9 -1,0.4 -3,0.4 -4,-1.1 -2,0.1 -4,-2.2 -5,-4.6 0,-1.4 -2,-1.4 -3,-0.4 -1,-1 -2,0.1 -3,1.1 -2,1.1 -5,0.9 -7,-0.5 -1,-0.8 -2,-0.1 -3,0.2 -1,-1.5 1,-2.9 1,-4.4 1,-1.3 -1,-2.8 0,-4.1 -1,-1.3 -2,-2.4 -2,-3.4 -1,-1.7 2,-2.4 2,-4.1 0,-2 2,-3.8 2,-6 -1,-2.2 -4,-3.1 -4,-5.5 0,-2.2 -2,0.8 -3,-0.5 -1,-0.8 -3,-1.3 -3,-3.2 0,-1.4 0,-3.2 2,-3.8 2,-1.3 1,-4.4 1,-6.7 1,-1.4 2,-2.3 2,-3.8 -1,-1 -1,-2.7 -1,-3.8 2,-0.8 3,-3 3,-4.7 2,-1.7 2,-0.1 3,0.8 1,-0.2 -1,-2.3 1,-3.3 0,-1.3 -1,-3.2 1,-3.8 1,-1 0,-2.1 -1,-3.1 1,-1.8 -1,-0.7 -2,-0.7 -2,-0.1 -3,1.4 -3,-0.7 -1,-1.7 0,-2.7 -2,-2.1 -2,0.7 -2,2.6 -3,3.6 -1,1.2 -4,1.1 -4,3.3 0,1.6 -1,3.1 -3,3.3 -3,1 -5,2.7 -6,5.3 -1,1.4 -1,2.4 0,3.7 0,3.4 -1,6.6 -2,9.8 -1,2 -3,1.4 -5,2.3 -2,0.2 -5,0.2 -7,2.3 -1,1 -3,0.3 -4,1.8 -1,1.5 -2,2.9 -4,2.9 -2,0.1 -4,2 -6,0.9 -2,-0.7 -4,-2.2 -6,-1.5 -1,-0.3 -2,-1.8 -4,-1.2 -2,0.5 -2,-2.2 -4,-2.6 -2,-1.1 -4,0.2 -6,-0.2 -2,0.3 -5,0.5 -7,1.1" id="Swi_bound" inkscape:connector-curvature="0" sodipodi:nodetypes="ccccccccccccccccccccccccsccccccccccsccccccccsccccccccccccccccscccccccccccccccccccccccccccccccccccccccccccccsscccccccccscccccccsccccscccccccccscccccccccccsccccsccccccccsccccscccccccccccccccccccccccccccccccccccccccccccccssccccccccccscccccccccccccccccscccccccccscscscccccccccccccsccccccsccccccc" />
  </g>
  <g inkscape:groupmode="layer" id="layer5" inkscape:label="labels" style="display:inline" transform="translate(-1234,-361.10001)">
    <text xml:space="preserve" style="font-size:18px;font-style:normal;font-variant:normal;font-weight:normal;font-stretch:normal;text-align:start;line-height:125%;letter-spacing:0px;word-spacing:0px;writing-mode:lr-tb;text-anchor:start;fill:#000000;stroke:none;font-family:Nimbus Sans L;-inkscape-font-specification:Nimbus Sans L" x="1298.8026" y="469.5152" id="text3382" sodipodi:linespacing="125%" transform="translate(7.676,34.44)"><tspan sodipodi:role="line" id="tspan3384" x="1298.8026" y="469.5152">Meuse</tspan></text>
    <text xml:space="preserve" style="font-size:18px;font-style:normal;font-variant:normal;font-weight:normal;font-stretch:normal;text-align:start;line-height:125%;letter-spacing:0px;word-spacing:0px;writing-mode:lr-tb;text-anchor:start;fill:#000000;stroke:none;font-family:Nimbus Sans L;-inkscape-font-specification:Nimbus Sans L" x="1420.1948" y="446.9032" id="text3386" sodipodi:linespacing="125%" transform="translate(4.614,41.04)"><tspan sodipodi:role="line" id="tspan3388" x="1420.1948" y="446.9032">Moselle</tspan></text>
    <text transform="translate(4.61,30.92)" sodipodi:linespacing="125%" id="text3390" y="530.5332" x="1418.1948" style="font-size:18px;font-style:normal;font-variant:normal;font-weight:normal;font-stretch:normal;text-align:start;line-height:125%;letter-spacing:0px;word-spacing:0px;writing-mode:lr-tb;text-anchor:start;fill:#000000;stroke:none;font-family:Nimbus Sans L;-inkscape-font-specification:Nimbus Sans L" xml:space="preserve"><tspan y="530.5332" x="1418.1948" id="tspan3392" sodipodi:role="line">Meurthe</tspan></text>
    <text xml:space="preserve" style="font-size:18px;font-style:normal;font-variant:normal;font-weight:normal;font-stretch:normal;text-align:start;line-height:125%;letter-spacing:0px;word-spacing:0px;writing-mode:lr-tb;text-anchor:start;fill:#000000;stroke:none;font-family:Nimbus Sans L;-inkscape-font-specification:Nimbus Sans L" x="1533.5348" y="654.70319" id="text3394" sodipodi:linespacing="125%" transform="translate(-2.902,46.06)"><tspan sodipodi:role="line" id="tspan3396" x="1533.5348" y="654.70319">Haut-</tspan><tspan sodipodi:role="line" x="1533.5348" y="677.20319" id="tspan3398">Rhin</tspan></text>
    <text transform="translate(4.696,47.75)" sodipodi:linespacing="125%" id="text3400" y="508.62323" x="1582.0244" style="font-size:18px;font-style:normal;font-variant:normal;font-weight:normal;font-stretch:normal;text-align:center;line-height:125%;letter-spacing:0px;word-spacing:0px;writing-mode:lr-tb;text-anchor:middle;fill:#000000;stroke:none;font-family:Nimbus Sans L;-inkscape-font-specification:Nimbus Sans L" xml:space="preserve"><tspan y="508.62323" x="1582.0244" id="tspan3402" sodipodi:role="line">Bas-</tspan><tspan id="tspan3404" y="531.12323" x="1582.0244" sodipodi:role="line">Rhin</tspan></text>
    <text xml:space="preserve" style="font-size:18px;font-style:normal;font-variant:normal;font-weight:normal;font-stretch:normal;text-align:start;line-height:125%;letter-spacing:0px;word-spacing:0px;writing-mode:lr-tb;text-anchor:start;fill:#000000;stroke:none;font-family:Nimbus Sans L;-inkscape-font-specification:Nimbus Sans L" x="1421.5848" y="612.4032" id="text3406" sodipodi:linespacing="125%" transform="translate(4.607,40.81)"><tspan sodipodi:role="line" id="tspan3408" x="1421.5848" y="612.4032">Vosges</tspan></text>
    <text sodipodi:linespacing="125%" id="text4179" y="800.57922" x="1533.3506" style="font-size:12px;font-style:normal;font-variant:normal;font-weight:bold;font-stretch:normal;text-align:start;line-height:125%;letter-spacing:0px;word-spacing:0px;writing-mode:lr-tb;text-anchor:start;fill:#646464;stroke:none;font-family:Nimbus Sans L;-inkscape-font-specification:Nimbus Sans L Bold" xml:space="preserve"><tspan y="800.57922" x="1533.3506" id="tspan4181" sodipodi:role="line" transform="translate(-16,0)">SWITZERLAND</tspan></text>
    <text xml:space="preserve" style="font-size:12px;font-style:normal;font-variant:normal;font-weight:bold;font-stretch:normal;text-align:center;line-height:125%;letter-spacing:0px;word-spacing:0px;writing-mode:lr-tb;text-anchor:middle;fill:#646464;stroke:none;font-family:Nimbus Sans L;-inkscape-font-specification:Nimbus Sans L Bold" x="1419.1688" y="388.27725" id="text4183" sodipodi:linespacing="125%"><tspan sodipodi:role="line" id="tspan4185" x="1419.1688" y="388.27725">LUX.</tspan></text>
    <text sodipodi:linespacing="125%" id="text4187" y="384.33923" x="1357.2081" style="font-size:12px;font-style:normal;font-variant:normal;font-weight:bold;font-stretch:normal;text-align:center;line-height:125%;letter-spacing:0px;word-spacing:0px;writing-mode:lr-tb;text-anchor:middle;fill:#646464;stroke:none;font-family:Nimbus Sans L;-inkscape-font-specification:Nimbus Sans L Bold" xml:space="preserve"><tspan y="384.33923" x="1357.2081" id="tspan4189" sodipodi:role="line">BELGIUM</tspan></text>
    <text sodipodi:linespacing="125%" id="text4191" y="521.01819" x="1691.3503" style="font-size:16px;font-style:normal;font-variant:normal;font-weight:bold;font-stretch:normal;text-align:start;line-height:125%;letter-spacing:0px;word-spacing:0px;writing-mode:lr-tb;text-anchor:start;fill:#646464;stroke:none;font-family:Nimbus Sans L;-inkscape-font-specification:Nimbus Sans L Bold" xml:space="preserve"><tspan y="521.01819" x="1691.3503" id="tspan4193" sodipodi:role="line">GERMANY</tspan></text>
    <text sodipodi:linespacing="125%" id="text3421" y="489.5152" x="1314.8026" style="font-size:18px;font-style:normal;font-variant:normal;font-weight:normal;font-stretch:normal;text-align:start;line-height:125%;letter-spacing:0px;word-spacing:0px;writing-mode:lr-tb;text-anchor:start;fill:#646464;stroke:none;font-family:Nimbus Sans L;-inkscape-font-specification:Nimbus Sans L" xml:space="preserve" transform="translate(6.622,34.35)"><tspan y="489.5152" x="1314.8026" id="tspan3423" sodipodi:role="line">55</tspan></text>
    <text xml:space="preserve" style="font-size:18px;font-style:normal;font-variant:normal;font-weight:normal;font-stretch:normal;text-align:start;line-height:125%;letter-spacing:0px;word-spacing:0px;writing-mode:lr-tb;text-anchor:start;fill:#646464;stroke:none;font-family:Nimbus Sans L;-inkscape-font-specification:Nimbus Sans L" x="1451.8711" y="475.50821" id="text3425" sodipodi:linespacing="125%" transform="translate(7.167,41.54)"><tspan sodipodi:role="line" id="tspan3427" x="1451.8711" y="475.50821">57</tspan></text>
    <text sodipodi:linespacing="125%" id="text3429" y="501.52124" x="1390.8406" style="font-size:18px;font-style:normal;font-variant:normal;font-weight:normal;font-stretch:normal;text-align:start;line-height:125%;letter-spacing:0px;word-spacing:0px;writing-mode:lr-tb;text-anchor:start;fill:#646464;stroke:none;font-family:Nimbus Sans L;-inkscape-font-specification:Nimbus Sans L" xml:space="preserve" transform="translate(5.9,38.31)"><tspan y="501.52124" x="1390.8406" id="tspan3431" sodipodi:role="line">54</tspan></text>
    <text xml:space="preserve" style="font-size:18px;font-style:normal;font-variant:normal;font-weight:normal;font-stretch:normal;text-align:start;line-height:125%;letter-spacing:0px;word-spacing:0px;writing-mode:lr-tb;text-anchor:start;fill:#646464;stroke:none;font-family:Nimbus Sans L;-inkscape-font-specification:Nimbus Sans L" x="1437.8641" y="632.58679" id="text3433" sodipodi:linespacing="125%" transform="translate(-1.034,40.59)"><tspan sodipodi:role="line" id="tspan3435" x="1437.8641" y="632.58679">88</tspan></text>
    <text sodipodi:linespacing="125%" id="text3437" y="562.55176" x="1569.9302" style="font-size:18px;font-style:normal;font-variant:normal;font-weight:normal;font-stretch:normal;text-align:start;line-height:125%;letter-spacing:0px;word-spacing:0px;writing-mode:lr-tb;text-anchor:start;fill:#646464;stroke:none;font-family:Nimbus Sans L;-inkscape-font-specification:Nimbus Sans L" xml:space="preserve" transform="translate(2.461,47.61)"><tspan y="562.55176" x="1569.9302" id="tspan3439" sodipodi:role="line">67</tspan></text>
    <text xml:space="preserve" style="font-size:18px;font-style:normal;font-variant:normal;font-weight:normal;font-stretch:normal;text-align:start;line-height:125%;letter-spacing:0px;word-spacing:0px;writing-mode:lr-tb;text-anchor:start;fill:#646464;stroke:none;font-family:Nimbus Sans L;-inkscape-font-specification:Nimbus Sans L" x="1545.9182" y="624.58276" id="text3441" sodipodi:linespacing="125%" transform="translate(-0.7635,46.26)"><tspan sodipodi:role="line" id="tspan3443" x="1545.9182" y="624.58276">68</tspan></text>
    <text sodipodi:linespacing="125%" id="text3445" y="701.62128" x="1503.8972" style="font-size:18px;font-style:normal;font-variant:normal;font-weight:normal;font-stretch:normal;text-align:start;line-height:125%;letter-spacing:0px;word-spacing:0px;writing-mode:lr-tb;text-anchor:start;fill:#646464;stroke:none;font-family:Nimbus Sans L;-inkscape-font-specification:Nimbus Sans L" xml:space="preserve" transform="translate(-4.738,43.95)"><tspan y="701.62128" x="1503.8972" id="tspan3447" sodipodi:role="line">90</tspan></text>
  </g>
  <g inkscape:groupmode="layer" id="layer6" inkscape:label="legend" style="display:inline" transform="translate(-1234,-361.10001)">
    <text xml:space="preserve" style="font-size:20px;font-style:normal;font-variant:normal;font-weight:normal;font-stretch:normal;line-height:150%;letter-spacing:0px;word-spacing:0px;fill:#000000;fill-opacity:1;stroke:none;font-family:Comic Sans MS;-inkscape-font-specification:Comic Sans MS" x="1313.8429" y="500.75278" id="text3417" sodipodi:linespacing="150%" transform="matrix(0.9986,0.0523,-0.0523,0.9986,33.73,-34.32)"><tspan sodipodi:role="line" id="tspan3419" x="1313.8429" y="500.75278" /></text>
    <g id="g4327" transform="translate(2.23349,6)">
      <rect ry="10" rx="10" y="361.44501" x="1622.7915" height="70.814194" width="202.60001" id="rect4292" style="fill:#ffffff;fill-opacity:1;stroke:#000000;stroke-width:0.75000000000000000;stroke-linecap:butt;stroke-linejoin:miter;stroke-miterlimit:4;stroke-opacity:1;stroke-dasharray:none;stroke-dashoffset:2.39999999999999990;display:inline" />
      <text xml:space="preserve" style="font-size:16px;font-style:normal;font-variant:normal;font-weight:bold;font-stretch:normal;text-align:center;line-height:125%;letter-spacing:0px;word-spacing:0px;writing-mode:lr-tb;text-anchor:middle;fill:#000000;stroke:none;font-family:Nimbus Sans L;-inkscape-font-specification:Nimbus Sans L Bold" x="1724.4351" y="382.17725" id="text3446" sodipodi:linespacing="125%"><tspan sodipodi:role="line" x="1726.8726" y="382.17725" id="tspan3452">Territorial evolution</tspan><tspan sodipodi:role="line" x="1726.8726" y="402.17725" id="tspan3365">of the départements</tspan><tspan sodipodi:role="line" x="1724.4351" y="422.17725" id="tspan3468">of Alsace-Lorraine</tspan></text>
    </g>
    <g style="display:inline" transform="matrix(0.3997,0,0,0.3997,1226.3275,72.62657)" id="g3562">
      <g transform="translate(39.67,-271.7)" id="g3564">
        <g id="g3566">
          <text style="font-size:16px;font-style:normal;font-variant:normal;font-weight:normal;font-stretch:normal;text-align:center;line-height:125%;writing-mode:lr-tb;text-anchor:middle;font-family:Arial;-inkscape-font-specification:Arial" id="text3568" transform="scale(1.03,0.9709)" y="2133.3303" x="-1.5148007" xml:space="preserve" sodipodi:linespacing="125%"><tspan style="font-size:16px;font-style:normal;font-variant:normal;font-weight:normal;font-stretch:normal;text-align:center;line-height:125%;writing-mode:lr-tb;text-anchor:middle;font-family:Arial;-inkscape-font-specification:Arial" sodipodi:role="line" id="tspan3570" y="2133.3303" x="-1.5148007">0</tspan></text>
          <text style="font-size:16px;font-style:normal;font-variant:normal;font-weight:normal;font-stretch:normal;text-align:center;line-height:125%;writing-mode:lr-tb;text-anchor:middle;font-family:Arial;-inkscape-font-specification:Arial" id="text3572" transform="scale(1.03,0.9709)" y="2133.3303" x="390.07434" xml:space="preserve" sodipodi:linespacing="125%"><tspan style="font-size:16px;font-style:normal;font-variant:normal;font-weight:normal;font-stretch:normal;text-align:center;line-height:125%;writing-mode:lr-tb;text-anchor:middle;font-family:Arial;-inkscape-font-specification:Arial" sodipodi:role="line" id="tspan3574" y="2133.3303" x="390.07434">100</tspan></text>
          <text style="font-size:16px;font-style:normal;font-variant:normal;font-weight:normal;font-stretch:normal;text-align:center;line-height:125%;writing-mode:lr-tb;text-anchor:middle;font-family:Arial;-inkscape-font-specification:Arial" id="text3576" transform="scale(1.03,0.9709)" y="2130.1584" x="193.91873" xml:space="preserve" sodipodi:linespacing="125%"><tspan style="font-size:16px;font-style:normal;font-variant:normal;font-weight:normal;font-stretch:normal;text-align:center;line-height:125%;writing-mode:lr-tb;text-anchor:middle;font-family:Arial;-inkscape-font-specification:Arial" sodipodi:role="line" id="tspan3578" y="2130.1584" x="193.91873">(km)</tspan></text>
        </g>
        <g id="g3580">
          <text style="font-size:16px;font-style:normal;font-variant:normal;font-weight:normal;font-stretch:normal;text-align:center;line-height:125%;writing-mode:lr-tb;text-anchor:middle;font-family:Arial;-inkscape-font-specification:Arial" id="text3582" transform="scale(1.03,0.9709)" y="2168.9653" x="-1.5148007" xml:space="preserve" sodipodi:linespacing="125%"><tspan sodipodi:role="line" id="tspan3584" y="2168.9653" x="-1.5148007" style="font-size:16px;font-style:normal;font-variant:normal;font-weight:normal;font-stretch:normal;text-align:center;line-height:125%;writing-mode:lr-tb;text-anchor:middle;font-family:Arial;-inkscape-font-specification:Arial">0</tspan></text>
          <text style="font-size:16px;font-style:normal;font-variant:normal;font-weight:normal;font-stretch:normal;text-align:center;line-height:125%;writing-mode:lr-tb;text-anchor:middle;font-family:Arial;-inkscape-font-specification:Arial" id="text3586" transform="scale(1.03,0.9709)" y="2168.9653" x="376.00064" xml:space="preserve" sodipodi:linespacing="125%"><tspan sodipodi:role="line" id="tspan3588" y="2168.9653" x="376.00064" style="font-size:16px;font-style:normal;font-variant:normal;font-weight:normal;font-stretch:normal;text-align:center;line-height:125%;writing-mode:lr-tb;text-anchor:middle;font-family:Arial;-inkscape-font-specification:Arial">60</tspan></text>
          <text style="font-size:16px;font-style:normal;font-variant:normal;font-weight:normal;font-stretch:normal;text-align:center;line-height:125%;writing-mode:lr-tb;text-anchor:middle;font-family:Arial;-inkscape-font-specification:Arial" id="text3590" transform="scale(1.03,0.9709)" y="2169.1138" x="193.91873" xml:space="preserve" sodipodi:linespacing="125%"><tspan sodipodi:role="line" id="tspan3592" y="2169.1138" x="193.91873" style="font-size:16px;font-style:normal;font-variant:normal;font-weight:normal;font-stretch:normal;text-align:center;line-height:125%;writing-mode:lr-tb;text-anchor:middle;font-family:Arial;-inkscape-font-specification:Arial">(miles)</tspan></text>
        </g>
        <g transform="matrix(0.8068,0,0,1,-1.788,13.18)" id="g3594">
          <path inkscape:connector-curvature="0" d="m 0.162,2064 499.638,0 0,12 -499.638,0 0,-12 z m 10e-5,6 499.6379,0" style="fill:#ffffff;fill-opacity:1;fill-rule:nonzero;stroke:#000000;stroke-width:0.36070001;stroke-linecap:round;stroke-miterlimit:4;stroke-opacity:1;stroke-dashoffset:0" id="path3596" />
          <path inkscape:connector-curvature="0" d="m 100.2,2064 99.6,0 0,6 -99.6,0 0,-6 z m 200,0 99.6,0 0,6 -99.6,0 0,-6 z m -300.0377,6 160.6377,0 0,6 -160.6377,0 0,-6 z m 321.8377,0 160.6,0 0,6 -160.6,0 0,-6 z" style="fill:#000000;fill-opacity:1;stroke:#000000;stroke-width:0.36070001;stroke-linecap:butt;stroke-linejoin:miter;stroke-miterlimit:4;stroke-opacity:1;stroke-dashoffset:0" id="path3598" sodipodi:nodetypes="cccccccccccccccccccc" />
        </g>
      </g>
    </g>
    <path inkscape:connector-curvature="0" id="path2811" style="fill:#000000;stroke:#000000;stroke-width:0.19185001;display:inline" d="m 1252.6459,398.19593 c -4.1,-1.5 -8.45,-1.5 -12.55,0 0.95,-1.5 1.4,-2.5 1.7,-3.5 2.15,0.5 2.45,-1.5 0.9,-2 1.5,-2.5 2.45,-7 3.7,-13 1.25,6 2.15,10.5 3.65,13 -1.5,0.5 -1.25,2.5 0.95,2 0.3,1 0.75,2 1.65,3.5 z m -11.45,-21.5 c 0.75,0 1.4,0 2.1,-0.5 1.85,-0.5 2.15,-3.5 2.65,-5.5 0.65,1.5 1.45,7 3.45,6.5 l -0.35,-1 c 0.95,-3 1.4,-8.5 3.65,-8 l 0.5,-1 c -1.05,0 -1.95,0.5 -2.5,1 -1.45,2 -1.6,5 -2.25,7.5 -0.65,-1.5 -0.65,-2 -2.1,-7.5 l -0.45,0.5 c -2.65,0 -4.2,1.5 -3.7,4.5 l 0.95,-1 c -1.4,-2 0.75,-2.5 2.5,-2.5 -0.65,3 -1.15,4.5 -1.6,5.5 -0.5,0.5 -1.35,0.5 -2.2,0.5 l -0.65,1 z" sodipodi:nodetypes="ccccccccccccccccccccccccc" />
    <g id="g4294" transform="translate(6.23349,-2)">
      <rect style="fill:#ffffff;fill-opacity:1;stroke:#000000;stroke-width:0.7543022;stroke-linecap:butt;stroke-linejoin:miter;stroke-miterlimit:4;stroke-opacity:1;stroke-dasharray:none;stroke-dashoffset:2.4;display:inline" id="rect4093" width="204.93102" height="204.88123" x="1618.7915" y="601.81378" rx="10.115054" ry="10" />
      <text xml:space="preserve" style="font-size:14px;font-style:normal;font-variant:normal;font-weight:normal;font-stretch:normal;text-align:start;line-height:100%;letter-spacing:0px;word-spacing:0px;writing-mode:lr-tb;text-anchor:start;fill:#000000;stroke:none;display:inline;font-family:Nimbus Sans L;-inkscape-font-specification:Sans" x="1655.1584" y="644.63074" id="text4095" sodipodi:linespacing="100%"><tspan id="tspan4166" sodipodi:role="line" x="1655.1584" y="644.63074">Limits of the German</tspan><tspan sodipodi:role="line" x="1655.1584" y="658.63074" id="tspan4099">Empire 1871–1918</tspan></text>
      <text sodipodi:linespacing="125%" id="text4101" y="722.63074" x="1655.1584" style="font-size:10px;font-style:normal;font-variant:normal;font-weight:normal;font-stretch:normal;text-align:start;line-height:125%;letter-spacing:0px;word-spacing:0px;writing-mode:lr-tb;text-anchor:start;fill:#000000;stroke:none;display:inline;font-family:Nimbus Sans L;-inkscape-font-specification:Sans" xml:space="preserve"><tspan id="tspan4105" y="722.63074" x="1655.1584" sodipodi:role="line">54: Meurthe-et-Moselle</tspan><tspan y="735.13074" x="1655.1584" sodipodi:role="line" id="tspan4107">55: Meuse</tspan><tspan y="747.63074" x="1655.1584" sodipodi:role="line" id="tspan4109">57: Moselle</tspan><tspan id="tspan4156" y="760.13074" x="1655.1584" sodipodi:role="line">67: Bas-Rhin</tspan><tspan id="tspan4158" y="772.63074" x="1655.1584" sodipodi:role="line">68: Haut-Rhin</tspan><tspan id="tspan4160" y="785.13074" x="1655.1584" sodipodi:role="line">88: Vosges</tspan><tspan id="tspan4162" y="797.63074" x="1655.1584" sodipodi:role="line">90: Territoire-de-Belfort</tspan><tspan y="810.13074" x="1655.1584" sodipodi:role="line" id="tspan4111" /></text>
      <g id="g4125" transform="translate(411.29148,-74.6842)">
        <rect ry="0" rx="0" y="683.5" x="1215" height="14" width="21" id="rect4127" style="fill:#f6e1b9;fill-opacity:1;stroke:none;display:inline" />
        <path id="path4129" d="m 1228,683.5 8,0 0,14 -5,0 z" style="fill:#c3a76b;fill-opacity:1;stroke:none;display:inline" inkscape:connector-curvature="0" />
        <path id="path4131" d="m 1224,697.5 -9,0 0,-14 6,0 z" style="fill:#f1c872;fill-opacity:1;stroke:none;display:inline" inkscape:connector-curvature="0" />
        <rect style="fill:none;stroke:#ffe400;stroke-width:4;stroke-miterlimit:4;stroke-dasharray:none;display:inline" id="rect4133" width="21" height="14" x="1215" y="715.5" rx="0" ry="0" />
        <rect ry="0" rx="0" y="745.5" x="1215" height="14" width="21" id="rect4170" style="fill:none;stroke:#000000;stroke-width:1.5;display:inline" />
        <rect style="fill:none;stroke:#646464;stroke-width:1;display:inline" id="rect4236" width="21" height="14" x="1215" y="767.5" rx="0" ry="0" />
      </g>
      <text sodipodi:linespacing="150%" id="text4172" y="620.63074" x="1655.1584" style="font-size:14px;font-style:normal;font-variant:normal;font-weight:normal;font-stretch:normal;text-align:start;line-height:150%;letter-spacing:0px;word-spacing:0px;writing-mode:lr-tb;text-anchor:start;fill:#000000;stroke:none;display:inline;font-family:Nimbus Sans L;-inkscape-font-specification:Sans" xml:space="preserve"><tspan id="tspan4180" y="620.63074" x="1655.1584" sodipodi:role="line">Départements before 1871</tspan></text>
      <text sodipodi:linespacing="150%" id="text4189" y="683.60352" x="1655.1584" style="font-size:14px;font-style:normal;font-variant:normal;font-weight:normal;font-stretch:normal;text-align:start;line-height:150%;letter-spacing:0px;word-spacing:0px;writing-mode:lr-tb;text-anchor:start;fill:#000000;stroke:none;display:inline;font-family:Nimbus Sans L;-inkscape-font-specification:Sans" xml:space="preserve"><tspan id="tspan4198" y="683.60352" x="1655.1584" sodipodi:role="line">Modern borders</tspan></text>
      <text xml:space="preserve" style="font-size:14px;font-style:normal;font-variant:normal;font-weight:normal;font-stretch:normal;text-align:start;line-height:150%;letter-spacing:0px;word-spacing:0px;writing-mode:lr-tb;text-anchor:start;fill:#000000;stroke:none;display:inline;font-family:Nimbus Sans L;-inkscape-font-specification:Sans" x="1655.1584" y="705.60352" id="text4232" sodipodi:linespacing="150%"><tspan sodipodi:role="line" x="1655.1584" y="705.60352" id="tspan4234">Modern départements:</tspan></text>
    </g>
  </g>
</svg>
